<svg width="49" height="48" viewBox="0 0 49 48" fill="none" xmlns="http://www.w3.org/2000/svg">
<path fill-rule="evenodd" clip-rule="evenodd" d="M16.9424 29.3624H27.1094C27.5277 29.3624 27.8672 29.0229 27.8672 28.6045C27.8672 28.1862 27.5277 27.8467 27.1094 27.8467H16.9424C16.5241 27.8467 16.1846 28.1862 16.1846 28.6045C16.1846 29.0229 16.524 29.3624 16.9424 29.3624Z" fill="#444444"/>
<path fill-rule="evenodd" clip-rule="evenodd" d="M23.3409 28.6045V46.851C23.3409 47.2694 23.6804 47.6089 24.0988 47.6089C24.5166 47.6089 24.8566 47.2693 24.8566 46.851V28.6045C24.8566 28.1861 24.5166 27.8466 24.0988 27.8466C23.6804 27.8466 23.3409 28.1861 23.3409 28.6045ZM7.11035 0.391113C4.16064 0.391113 1.76518 2.78658 1.76518 5.73676C1.76518 8.68694 4.16064 11.0819 7.11035 11.0819C10.0606 11.0819 12.4561 8.68702 12.4561 5.73676C12.4561 2.7865 10.0606 0.391113 7.11035 0.391113ZM7.11035 1.9069C9.22437 1.9069 10.9403 3.62282 10.9403 5.73676C10.9403 7.8503 9.22437 9.56614 7.11035 9.56614C4.9968 9.56614 3.28097 7.8503 3.28097 5.73676C3.28097 3.62274 4.99688 1.9069 7.11035 1.9069ZM41.8897 0.391113C38.9394 0.391113 36.5439 2.78658 36.5439 5.73676C36.5439 8.68694 38.9394 11.0819 41.8897 11.0819C44.8394 11.0819 47.2348 8.68702 47.2348 5.73676C47.2348 2.7865 44.8394 0.391113 41.8897 0.391113ZM41.8897 1.9069C44.0032 1.9069 45.719 3.62282 45.719 5.73676C45.719 7.8503 44.0032 9.56614 41.8897 9.56614C39.7756 9.56614 38.0597 7.8503 38.0597 5.73676C38.0597 3.62274 39.7756 1.9069 41.8897 1.9069ZM11.2879 21.9573C11.3506 22.0837 11.4473 22.19 11.5672 22.2644C11.6871 22.3387 11.8254 22.3781 11.9665 22.3781L12.2479 22.3235L19.2266 19.534C20.3008 19.105 21.521 19.628 21.9505 20.7021C22.3794 21.7758 21.856 22.9961 20.7823 23.4255L11.5659 27.1094C10.6852 27.4615 9.68779 27.1766 9.1234 26.4369C9.02719 26.3108 8.8939 26.2182 8.74228 26.1718C8.59065 26.1255 8.42832 26.1279 8.27812 26.1786C8.12803 26.2295 7.99764 26.3261 7.90529 26.4549C7.81294 26.5837 7.76327 26.7382 7.76327 26.8966V30.7028C7.76327 30.8887 7.83158 31.0681 7.9552 31.2069C8.07883 31.3457 8.24915 31.4342 8.43378 31.4556L14.5682 32.164C16.0178 32.3313 17.1122 33.559 17.1122 35.0188V46.8511C17.1122 47.2695 17.4517 47.6089 17.87 47.6089C18.2884 47.6089 18.6279 47.2694 18.6279 46.8511V35.0188C18.6279 32.7891 16.9565 30.914 14.7419 30.6584L9.27898 30.0274V28.4448C10.1531 28.8465 11.1798 28.896 12.1282 28.5171L21.3452 24.8333C23.1955 24.0931 24.0974 21.9901 23.3577 20.1393C22.618 18.2885 20.5151 17.3867 18.6644 18.1264L12.2798 20.6784L8.61211 14.6754C8.35588 14.256 8.01674 13.8933 7.61544 13.6096C7.21414 13.3258 6.75914 13.127 6.27831 13.0252C6.24851 13.0192 6.21871 13.0126 6.18835 13.0065C5.6851 12.9001 5.16493 12.9025 4.66266 13.0134C4.16039 13.1243 3.68761 13.3413 3.27598 13.6497C2.86439 13.9583 2.52349 14.3513 2.2761 14.8023C2.0287 15.2533 1.88053 15.752 1.8415 16.2649C1.39584 22.129 0.502061 33.8815 0.502061 33.8815C0.500476 33.9006 0.5 33.9198 0.5 33.9391C0.5 36.1663 2.16788 38.0398 4.37939 38.2985L9.84884 39.0048V46.851C9.84884 47.2694 10.1884 47.6089 10.6067 47.6089C11.025 47.6089 11.3645 47.2693 11.3645 46.851V38.3384C11.3646 38.1542 11.2975 37.9762 11.1759 37.8379C11.0542 37.6995 10.8863 37.6101 10.7036 37.5866L4.55962 36.7938C3.12016 36.6276 2.03124 35.416 2.01563 33.9699C2.01563 33.9659 3.35254 16.3797 3.35254 16.3797C3.3752 16.0822 3.46117 15.7929 3.6047 15.5313C3.74822 15.2698 3.94598 15.0418 4.18474 14.8629C4.42359 14.6839 4.69794 14.5579 4.98942 14.4935C5.28089 14.4291 5.58276 14.4278 5.87481 14.4895L5.96421 14.5082C6.24319 14.5673 6.50717 14.6827 6.74 14.8473C6.97284 15.012 7.16962 15.2224 7.31832 15.4657C8.46477 17.3423 10.7884 21.1459 11.2417 21.8881C11.2571 21.9123 11.2722 21.9355 11.2879 21.9573Z" fill="#444444"/>
<path fill-rule="evenodd" clip-rule="evenodd" d="M5.27035 23.0597L7.70575 27.0467C8.62379 28.5494 10.4923 29.1708 12.1278 28.517C12.5163 28.3619 12.7058 27.9203 12.5503 27.5323C12.3951 27.1437 11.9535 26.9542 11.5655 27.1094C10.6166 27.4888 9.53231 27.1285 8.99923 26.2565L6.5639 22.2694C6.34562 21.9127 5.87872 21.8001 5.52207 22.0178C5.16525 22.2362 5.05207 22.703 5.27035 23.0597ZM36.0186 21.8269L28.6802 22.8647C26.7066 23.1436 25.3313 24.9726 25.6102 26.9462C25.8891 28.9192 27.7181 30.295 29.6917 30.0161L38.7173 28.7393C39.0643 28.6905 39.4024 28.5912 39.7207 28.4447V30.0271L34.2578 30.6582C32.0432 30.9138 30.3718 32.7888 30.3718 35.0186V46.8508C30.3718 47.2692 30.7114 47.6087 31.1297 47.6087C31.548 47.6087 31.8875 47.2691 31.8875 46.8508V35.0186C31.8875 33.5589 32.9819 32.331 34.4315 32.1638L40.5639 31.4554H40.5624C40.7477 31.4349 40.919 31.3468 41.0433 31.2079C41.1677 31.0689 41.2364 30.889 41.2364 30.7025V26.8959C41.2363 26.7375 41.1867 26.5831 41.0943 26.4544C41.002 26.3257 40.8716 26.2292 40.7215 26.1785C40.5714 26.1276 40.4091 26.1251 40.2574 26.1713C40.1058 26.2175 39.9725 26.3102 39.8762 26.4361C39.5422 26.8733 39.0497 27.1615 38.5049 27.2385L29.4794 28.5148C28.334 28.677 27.2729 27.8787 27.1112 26.7333C26.949 25.5883 27.7473 24.5273 28.8922 24.3651L36.5829 23.2778L36.4788 23.2848L37.1255 22.922L41.2262 16.2096C41.4834 15.7887 41.8518 15.447 42.2908 15.2221C42.7298 14.9971 43.2223 14.8977 43.7142 14.9348L43.7561 14.9379C45.1072 15.0399 46.1697 16.1343 46.2314 17.4874L46.9837 33.9549C46.9756 35.4071 45.8842 36.6263 44.4397 36.7935L38.4235 37.4883C38.2406 37.5093 38.0716 37.5962 37.9482 37.7329C37.8248 37.8695 37.7554 38.0464 37.753 38.2305L37.6348 46.8402C37.6292 47.2586 37.9642 47.6027 38.3821 47.6087C38.8005 47.6142 39.1445 47.2793 39.1506 46.8609L39.2592 38.9171L44.6135 38.2992C46.8281 38.0435 48.4995 36.1679 48.4995 33.9388C48.4995 33.9271 48.499 33.9155 48.4984 33.9039L47.7456 17.4182C47.6486 15.2991 45.9853 13.5858 43.8702 13.4266C43.856 13.4256 43.8419 13.424 43.8283 13.423C43.0581 13.365 42.2869 13.5207 41.5996 13.873C40.9122 14.2252 40.3355 14.7603 39.9327 15.4193L36.0186 21.8269ZM31.6587 2.66476C31.6587 2.06176 31.4191 1.48346 30.9928 1.05703C30.7817 0.845873 30.531 0.678379 30.2552 0.564118C29.9793 0.449858 29.6837 0.39107 29.3851 0.391113H18.8114C17.5553 0.391113 16.5377 1.40925 16.5377 2.66476V12.2971C16.5376 12.5395 16.6073 12.7769 16.7385 12.9808C16.8697 13.1847 17.0567 13.3466 17.2774 13.447C17.4981 13.5475 17.743 13.5822 17.983 13.5472C18.2229 13.5122 18.4477 13.4088 18.6305 13.2494C19.3595 12.6144 20.3868 11.719 20.9592 11.2198C21.0974 11.0997 21.2743 11.0335 21.4574 11.0334H29.385C29.6836 11.0335 29.9792 10.9747 30.2551 10.8604C30.531 10.7461 30.7816 10.5787 30.9927 10.3675C31.4191 9.94107 31.6586 9.36278 31.6586 8.75978V2.66476H31.6587ZM18.0535 11.7418V2.66476C18.0535 2.24644 18.3925 1.9069 18.8113 1.9069H29.385C29.4846 1.90686 29.5832 1.92648 29.6752 1.96463C29.7672 2.00278 29.8507 2.05871 29.9211 2.12922C29.9914 2.19954 30.0472 2.28303 30.0853 2.37492C30.1233 2.46681 30.1429 2.5653 30.1429 2.66476V8.75978C30.1429 8.85924 30.1234 8.95773 30.0853 9.04962C30.0472 9.14152 29.9914 9.22501 29.9211 9.29532C29.8508 9.36583 29.7672 9.42177 29.6752 9.45992C29.5832 9.49806 29.4846 9.51768 29.385 9.51763H21.4575C20.9083 9.51759 20.3776 9.71626 19.9634 10.0769L18.0535 11.7418Z" fill="#444444"/>
<path fill-rule="evenodd" clip-rule="evenodd" d="M20.7217 5.08602H27.5893C28.0077 5.08602 28.3471 4.74649 28.3471 4.32817C28.3471 3.90985 28.0076 3.57031 27.5893 3.57031H20.7217C20.3034 3.57031 19.9639 3.90985 19.9639 4.32817C19.9639 4.74649 20.3033 5.08602 20.7217 5.08602ZM20.7217 7.84987H24.0984C24.5162 7.84987 24.8562 7.51033 24.8562 7.09202C24.8562 6.67362 24.5162 6.33416 24.0984 6.33416H20.7217C20.3034 6.33416 19.9639 6.6737 19.9639 7.09202C19.9638 7.51033 20.3033 7.84987 20.7217 7.84987ZM36.44 29.0618L38.7172 28.7395C39.2449 28.6648 39.7495 28.4744 40.1949 28.1818C40.6404 27.8891 41.0155 27.5016 41.2935 27.0469L43.7288 23.0598C43.9471 22.7031 43.8339 22.2363 43.4772 22.018C43.1205 21.8002 42.6536 21.9129 42.4354 22.2696L40 26.2567C39.8386 26.5205 39.6209 26.7454 39.3624 26.9152C39.104 27.085 38.8111 27.1955 38.5049 27.2389L36.2277 27.5608C35.8134 27.6194 35.5244 28.0034 35.583 28.4177C35.6416 28.8314 36.0256 29.1204 36.44 29.0618Z" fill="#444444"/>
</svg>
