<svg width="49" height="48" viewBox="0 0 49 48" fill="none" xmlns="http://www.w3.org/2000/svg">
<path d="M45.8353 12.8289L24.8353 2.32886C24.7312 2.27684 24.6164 2.24976 24.5 2.24976C24.3836 2.24976 24.2689 2.27684 24.1648 2.32886L3.16476 12.8289C3.04009 12.8912 2.93524 12.987 2.86198 13.1055C2.78872 13.2241 2.74995 13.3607 2.75001 13.5001V34.5001C2.74925 34.6401 2.78769 34.7775 2.86099 34.8968C2.93429 35.0161 3.03951 35.1125 3.16476 35.1751L24.1648 45.6751C24.2689 45.7271 24.3836 45.7542 24.5 45.7542C24.6164 45.7542 24.7312 45.7271 24.8353 45.6751L45.8353 35.1751C45.9605 35.1125 46.0657 35.0161 46.139 34.8968C46.2123 34.7775 46.2508 34.6401 46.25 34.5001V13.5001C46.2501 13.3607 46.2113 13.2241 46.138 13.1055C46.0648 12.987 45.9599 12.8912 45.8353 12.8289ZM24.5 23.1616L18.6373 20.2299L37.3768 10.2751L43.8268 13.5001L24.5 23.1616ZM12.6373 17.2299L31.3768 7.27511L35.7268 9.45011L16.9895 19.4064L12.6373 17.2299ZM11.75 18.4636L16.25 20.7136V26.6896L14.5303 24.9699C14.3896 24.8292 14.1989 24.7501 14 24.7501H11.75V18.4636ZM24.5 3.83861L29.729 6.45011L10.9895 16.4064L5.17701 13.5001L24.5 3.83861ZM4.25001 14.7136L10.25 17.7136V25.5001C10.25 25.699 10.329 25.8898 10.4697 26.0304C10.6103 26.1711 10.8011 26.2501 11 26.2501H13.6895L16.4698 29.0304C16.5746 29.1352 16.7083 29.2066 16.8537 29.2355C16.9992 29.2645 17.15 29.2496 17.287 29.1929C17.424 29.1361 17.5411 29.04 17.6236 28.9167C17.706 28.7934 17.75 28.6484 17.75 28.5001V21.4636L23.75 24.4636V43.7866L4.25001 34.0366V14.7136ZM25.25 43.7866V24.4636L44.75 14.7136V34.0366L25.25 43.7866Z" fill="#444444"/>
</svg>
