<svg width="49" height="48" viewBox="0 0 49 48" fill="none" xmlns="http://www.w3.org/2000/svg">
<path d="M31.4459 36.6095C31.2678 36.3001 31.3709 35.897 31.6803 35.7189C31.9897 35.5314 32.3928 35.6439 32.5803 35.9532L34.4178 39.1407L40.9147 32.6439C41.1678 32.3907 41.5803 32.3907 41.8428 32.6439C42.0959 32.9064 42.0959 33.3189 41.8428 33.572L34.7459 40.6689C34.4459 40.9689 33.9303 40.9126 33.7147 40.5376L31.4459 36.6095ZM36.6959 26.8314C38.6366 26.8314 40.4459 27.3845 41.9741 28.3501C43.5209 22.5845 42.3772 16.3595 38.8053 11.522C38.5897 11.2314 38.6553 10.8189 38.9366 10.6032C39.2272 10.3876 39.6397 10.4532 39.8553 10.7345C43.7741 16.0314 44.9553 22.8845 43.0991 29.1657C47.5334 32.9157 47.8241 39.6564 43.7084 43.772C39.6397 47.8407 32.9834 47.6064 29.2053 43.2751C26.5241 44.1095 23.7022 44.3907 20.9178 44.1282C18.3866 43.8845 15.8928 43.1814 13.5584 42.0189L14.7397 44.1657C14.9084 44.4845 14.7959 44.8782 14.4772 45.0564C14.1584 45.2251 13.7647 45.1126 13.5866 44.7939L11.2897 40.6126C11.0553 40.1814 11.3553 39.6095 11.9178 39.647L16.6428 39.7407C17.0084 39.7501 17.2897 40.0501 17.2897 40.4064C17.2803 40.772 16.9803 41.0532 16.6241 41.0439L14.4678 40.997C16.5678 42.0001 18.7897 42.6001 21.0491 42.8251C23.5053 43.0595 25.9897 42.8345 28.3709 42.1595C26.8897 39.8814 26.3928 37.0689 27.0584 34.3689C26.6178 34.5282 26.1678 34.6689 25.7178 34.772V36.9845C25.7178 37.3501 25.4272 37.6407 25.0616 37.6407H20.8522C20.4866 37.6407 20.1959 37.3501 20.1959 36.9845V34.7814C18.9772 34.4907 17.8053 34.0032 16.7366 33.347L15.1709 34.9126C14.9178 35.1751 14.4959 35.1751 14.2428 34.9126L11.2522 31.9314C10.9991 31.6782 10.9991 31.2564 11.2522 31.0032L12.8178 29.4376C12.1616 28.3689 11.6741 27.2064 11.3834 25.9782H9.18031C8.81468 25.9782 8.52406 25.6876 8.52406 25.322V21.1126C8.52406 20.747 8.81468 20.4564 9.18031 20.4564H11.3928C11.6834 19.2282 12.1709 18.0657 12.8272 16.997L11.2522 15.4314C10.9991 15.1782 10.9991 14.7564 11.2522 14.5032L14.2334 11.522C14.4866 11.2689 14.9084 11.2689 15.1616 11.522L16.7272 13.0876C17.7959 12.4314 18.9584 11.9439 20.1866 11.6532V9.44074C20.1866 9.07511 20.4772 8.78449 20.8428 8.78449H25.0522C25.4178 8.78449 25.7084 9.07511 25.7084 9.44074V11.6532C26.9366 11.9439 28.0991 12.4314 29.1678 13.0876L30.7334 11.522C30.9866 11.2689 31.4084 11.2689 31.6616 11.522L34.6428 14.5032C34.8959 14.7564 34.8959 15.1689 34.6428 15.4314L33.0772 16.997C33.7334 18.0564 34.2209 19.2282 34.5116 20.4564H36.7241C37.0897 20.4564 37.3803 20.747 37.3803 21.1126V25.322C37.3803 25.697 37.0803 25.9876 36.6678 25.9689H34.5116L34.1647 27.1407C34.9709 26.9439 35.8241 26.8314 36.6959 26.8314ZM27.6303 32.7095C28.1272 31.5939 28.8209 30.5907 29.6741 29.7376C30.4897 28.922 31.4459 28.247 32.5053 27.7595C32.6741 27.3939 32.8334 27.0189 32.9647 26.6251C33.1241 26.1657 33.2459 25.697 33.3397 25.2095C33.3959 24.9095 33.6678 24.6751 33.9866 24.6751H36.0772V21.7689H33.9866C33.6772 21.7689 33.4053 21.5532 33.3397 21.2345C33.2084 20.522 32.9928 19.8282 32.7209 19.172C32.4491 18.5157 32.1116 17.897 31.7178 17.3157C31.5209 17.0532 31.5397 16.6876 31.7741 16.4532L33.2459 14.9814L31.1928 12.9282L29.7209 14.4001C29.5053 14.6157 29.1584 14.6532 28.8866 14.4751C28.2959 14.072 27.6584 13.7251 26.9928 13.4532C26.3459 13.1814 25.6709 12.9845 24.9772 12.8439C24.6491 12.8064 24.3959 12.5251 24.3959 12.197V10.1064H21.4897V12.1595C21.5084 12.4876 21.2834 12.7782 20.9553 12.8439C20.2334 12.9751 19.5491 13.1907 18.8928 13.4626C18.2366 13.7345 17.6178 14.072 17.0272 14.4657C16.7741 14.6626 16.3991 14.6439 16.1647 14.4095L14.6928 12.9376L12.6397 14.9907L14.1116 16.4626C14.3272 16.6782 14.3647 17.0251 14.1866 17.297C13.7834 17.8876 13.4366 18.5251 13.1647 19.1907C12.9022 19.8376 12.6959 20.5126 12.5553 21.2064C12.5178 21.5345 12.2459 21.7876 11.9084 21.7876H9.81781V24.6845H11.9084C12.2178 24.6845 12.4897 24.9095 12.5553 25.2189C12.6866 25.9407 12.9022 26.6251 13.1741 27.2814C13.4459 27.9376 13.7834 28.5564 14.1772 29.1376C14.3741 29.3907 14.3553 29.7657 14.1209 30.0001L12.6491 31.472L14.7022 33.5251L16.1741 32.0532C16.3897 31.8376 16.7366 31.8001 17.0084 31.9782C17.5991 32.3814 18.2366 32.7282 18.9022 33.0001C19.5491 33.2626 20.2241 33.4689 20.9272 33.6095C21.2553 33.647 21.5084 33.9189 21.5084 34.2564V36.347H24.4053V34.2564C24.4053 33.947 24.6303 33.6751 24.9397 33.6095C25.8772 33.4314 26.7772 33.122 27.6303 32.7095ZM42.7897 30.6657C39.4241 27.3001 33.9678 27.3001 30.6022 30.6657C27.2366 34.0314 27.2366 39.4876 30.6022 42.8532C33.9678 46.2189 39.4241 46.2189 42.7897 42.8532C46.1459 39.4876 46.1459 34.0314 42.7897 30.6657ZM31.1647 2.28761C30.9959 1.96886 31.1084 1.57511 31.4272 1.39699C31.7459 1.22824 32.1397 1.34074 32.3178 1.65011L34.6147 5.83136C34.8491 6.26261 34.5491 6.83449 33.9866 6.79699L29.2522 6.70324C28.8959 6.69386 28.6053 6.39386 28.6147 6.03761C28.6241 5.68136 28.9241 5.39074 29.2803 5.40011L31.4366 5.44699C27.7616 3.69386 23.6459 3.14074 19.6803 3.80636C10.5584 5.32511 3.69593 13.0595 3.27406 22.3314C3.07718 26.7657 4.37093 31.2282 7.09906 34.9314C7.31468 35.222 7.24906 35.6345 6.96781 35.8501C6.67718 36.0657 6.26468 36.0001 6.04906 35.7189C3.13343 31.7814 1.75531 27.0095 1.96156 22.2845C2.41156 12.3751 9.73343 4.12511 19.4647 2.50324C23.8147 1.78136 28.3428 2.43761 32.3459 4.43449L31.1647 2.28761ZM22.9522 16.7157C26.5428 16.7157 29.4491 19.622 29.4491 23.2126C29.4491 26.8032 26.5334 29.7095 22.9522 29.7095C19.3616 29.7095 16.4459 26.8032 16.4459 23.2126C16.4459 19.6314 19.3616 16.7157 22.9522 16.7157ZM26.6178 19.5564C24.5928 17.5314 21.3022 17.5314 19.2772 19.5564C17.2522 21.5814 17.2522 24.8626 19.2772 26.897C21.3022 28.922 24.5928 28.922 26.6178 26.897C28.6428 24.8626 28.6428 21.5814 26.6178 19.5564Z" fill="white"/>
</svg>
