<svg width="38" height="36" viewBox="0 0 38 36" fill="none" xmlns="http://www.w3.org/2000/svg">
<path d="M6.17541 6.47657L7.33947 8.88282L9.98009 9.24219C10.5035 9.31251 10.691 9.96094 10.3317 10.3047L8.40197 12.1563L8.87853 14.7813C8.97228 15.2969 8.42541 15.6875 7.97228 15.4375L5.62072 14.1719L3.26916 15.4375C2.81603 15.6797 2.24572 15.3047 2.37072 14.7422L2.83947 12.1484L0.909783 10.2969C0.534783 9.93751 0.737908 9.29688 1.26916 9.22657L3.90197 8.86719L5.06603 6.46094C5.28478 6.00001 5.95666 6.00782 6.17541 6.47657ZM6.36291 9.72657L5.62072 8.17969L4.87072 9.72657C4.78478 9.90626 4.60509 10.0469 4.39416 10.0781L2.69885 10.3047L3.94103 11.4922C4.08166 11.6328 4.15978 11.8359 4.12072 12.0469L3.81603 13.7344L5.31603 12.9297C5.49572 12.8359 5.72228 12.8203 5.90978 12.9297L7.4176 13.7422L7.12072 12.0859C7.07384 11.8828 7.12853 11.6563 7.2926 11.4922L8.53478 10.3047L6.85509 10.0781C6.65197 10.0547 6.45666 9.92188 6.36291 9.72657ZM19.4723 0.812506L20.6363 3.21876L23.2848 3.57813C23.8082 3.64844 23.9957 4.29688 23.6363 4.64844L21.7067 6.50001L22.1832 9.12501C22.277 9.64063 21.7301 10.0313 21.277 9.78126L18.9098 8.51563L16.5582 9.78126C16.1051 10.0234 15.5348 9.64844 15.6598 9.08594L16.1285 6.49219L14.191 4.64063C13.816 4.28126 14.0192 3.64063 14.5504 3.57032L17.1832 3.21094L18.3473 0.812506C18.5817 0.335944 19.2457 0.343756 19.4723 0.812506ZM19.6598 4.06251L18.9098 2.51563L18.1676 4.06251C18.0817 4.24219 17.902 4.38282 17.691 4.41407L15.9879 4.64063L17.2301 5.82813C17.3785 5.96876 17.4488 6.17188 17.4098 6.38282L17.1051 8.07032L18.6129 7.26563C18.7926 7.17188 19.0113 7.15626 19.2067 7.26563L20.7145 8.07813L20.4176 6.42188C20.3707 6.21876 20.4254 5.99219 20.5895 5.82813L21.8317 4.64063L20.152 4.40626C19.941 4.39063 19.7535 4.25782 19.6598 4.06251ZM32.7613 6.47657L33.9254 8.88282L36.566 9.24219C37.0895 9.31251 37.2848 9.96094 36.9176 10.3047L34.9879 12.1563L35.4645 14.7813C35.5582 15.2969 35.0113 15.6875 34.5582 15.4375L32.2067 14.1719L29.8551 15.4375C29.402 15.6797 28.8317 15.3047 28.9488 14.7422L29.4176 12.1484L27.4879 10.2969C27.1129 9.93751 27.316 9.29688 27.8473 9.22657L30.4801 8.86719L31.6442 6.46094C31.8707 6.00001 32.5426 6.00782 32.7613 6.47657ZM32.9488 9.72657L32.2067 8.17969L31.4567 9.72657C31.3707 9.90626 31.1988 10.0469 30.9801 10.0781L29.2848 10.3047L30.5192 11.4922C30.6598 11.6328 30.7379 11.8359 30.6988 12.0469L30.3942 13.7344L31.902 12.9297C32.0817 12.8359 32.3082 12.8203 32.4957 12.9297L34.0113 13.7422L33.7145 12.0859C33.6676 11.8828 33.7223 11.6563 33.8863 11.4922L35.1207 10.3047L33.441 10.0781C33.2379 10.0547 33.0426 9.92188 32.9488 9.72657ZM16.0113 22.4297C15.8395 22.1328 15.941 21.75 16.2379 21.5781C16.5348 21.4063 16.9176 21.5078 17.0895 21.8047L17.9098 23.2266L20.8238 20.3125C21.066 20.0703 21.4645 20.0703 21.7067 20.3125C21.9488 20.5547 21.9488 20.9531 21.7067 21.1953L18.2145 24.6875C17.9254 24.9766 17.441 24.9141 17.2379 24.5625L16.0113 22.4297ZM18.9098 15.8281C22.3082 15.8281 25.066 18.5859 25.066 21.9844C25.066 25.3828 22.3082 28.1406 18.9098 28.1406C15.5113 28.1406 12.7535 25.3828 12.7535 21.9844C12.7535 18.5859 15.5113 15.8281 18.9098 15.8281ZM22.3785 18.5156C20.4645 16.6016 17.3551 16.6016 15.441 18.5156C13.527 20.4297 13.527 23.5391 15.441 25.4531C17.3551 27.3672 20.4645 27.3672 22.3785 25.4531C24.2926 23.5313 24.2926 20.4297 22.3785 18.5156ZM18.9098 11.9609C24.441 11.9609 28.9254 16.4453 28.9254 21.9766C28.9254 24.0703 28.2848 26.0156 27.1832 27.625L30.1754 32.8047C30.4645 33.2891 30.066 33.8359 29.5504 33.7578L26.4879 33.2734L24.8473 35.2891C24.5582 35.6641 24.0192 35.6016 23.8082 35.2266L21.7145 31.6016C19.8863 32.1328 17.9254 32.1328 16.1051 31.6016L14.0113 35.2266C13.8004 35.6016 13.2613 35.6641 12.9723 35.2891L11.3317 33.2734L8.26916 33.7578C7.74572 33.8438 7.37853 33.2734 7.62853 32.8281L10.6363 27.625C7.9176 23.6484 8.42541 18.2969 11.8317 14.8906C13.6363 13.0859 16.1442 11.9609 18.9098 11.9609ZM26.3551 28.6797C25.402 29.7422 24.2301 30.5938 22.902 31.1719L24.4332 33.8203L25.7457 32.2109C25.8942 32.0234 26.1207 31.9531 26.3395 31.9922L28.4488 32.3281L26.3551 28.6797ZM14.9098 31.1719C13.5895 30.5938 12.4176 29.7422 11.4645 28.6875L9.36291 32.3281L11.4723 31.9922C11.6832 31.9531 11.9176 32.0313 12.066 32.2109L13.3785 33.8203L14.9098 31.1719ZM25.1129 15.7813C21.691 12.3594 16.1363 12.3594 12.7145 15.7813C9.29259 19.2031 9.29259 24.7578 12.7145 28.1797C16.1442 31.6016 21.691 31.6016 25.1129 28.1797C28.5348 24.7578 28.5348 19.2031 25.1129 15.7813Z" fill="#FFA726"/>
</svg>
