<svg width="41" height="40" viewBox="0 0 41 40" fill="none" xmlns="http://www.w3.org/2000/svg">
<g clip-path="url(#clip0_54_1818)">
<path d="M12.0369 7.95809C10.8167 8.41897 9.94256 9.58919 9.94256 10.9684C9.94256 11.4995 10.0841 11.9937 10.3125 12.4363C9.34475 12.8083 8.65234 13.7415 8.65234 14.8393C8.65234 15.9374 9.34475 16.8701 10.3125 17.2424C10.0841 17.6851 9.94264 18.1794 9.94264 18.7102C9.94264 20.0896 10.8168 21.2599 12.0369 21.7204C11.9401 21.9907 11.878 22.278 11.878 22.581C11.878 24.0042 13.0354 25.1616 14.4586 25.1616C14.78 25.1616 15.0846 25.0952 15.3684 24.988C15.7865 25.8509 16.6632 26.4519 17.6844 26.4519C19.1076 26.4519 20.265 25.2945 20.265 23.8713V5.80716C20.265 4.3842 19.1076 3.22656 17.6844 3.22656C16.6632 3.22656 15.7865 3.82792 15.3684 4.69041C15.0846 4.58331 14.78 4.51686 14.4587 4.51686C13.0354 4.51686 11.8781 5.6745 11.8781 7.09746C11.8781 7.40084 11.9402 7.68777 12.0369 7.95809ZM14.4586 5.80716C15.1703 5.80716 15.7489 6.38586 15.7489 7.09746H17.0392C17.0392 6.47747 16.8103 5.9149 16.4445 5.46975C16.5941 4.9229 17.0903 4.51686 17.6844 4.51686C18.396 4.51686 18.9747 5.09556 18.9747 5.80716V23.8713C18.9747 24.5829 18.396 25.1616 17.6844 25.1616C17.0903 25.1616 16.5941 24.7559 16.4445 24.2087C16.8103 23.7635 17.0393 23.2013 17.0393 22.581H15.749C15.749 23.2926 15.1703 23.8713 14.4587 23.8713C13.7471 23.8713 13.1684 23.2926 13.1684 22.581C13.1684 21.8694 13.7471 21.2907 14.4587 21.2907V20.0005C13.8302 20.0005 13.2613 20.2354 12.8136 20.6097C11.9156 20.4424 11.2329 19.6561 11.2329 18.7102C11.2329 17.6432 12.1015 16.7747 13.1684 16.7747C14.2356 16.7747 15.1038 17.6432 15.1038 18.7102H16.3941C16.3941 16.9316 14.9473 15.4844 13.1684 15.4844C12.4394 15.4844 11.7735 15.7367 11.2329 16.1465V16.1296C10.5213 16.1296 9.94264 15.5509 9.94264 14.8393C9.94264 14.1277 10.5213 13.549 11.2329 13.549V13.5323C11.7735 13.9421 12.4394 14.1941 13.1684 14.1941C14.9473 14.1941 16.3941 12.7472 16.3941 10.9684H15.1038C15.1038 12.0356 14.2356 12.9038 13.1684 12.9038C12.1015 12.9038 11.2329 12.0356 11.2329 10.9684C11.2329 10.0226 11.9156 9.23637 12.8136 9.06912C13.2613 9.4433 13.8302 9.67798 14.4587 9.67798V8.38768C13.7471 8.38768 13.1684 7.80906 13.1684 7.09738C13.1684 6.38586 13.7471 5.80708 14.4587 5.80708L14.4586 5.80716ZM27.3617 4.51686C27.0404 4.51686 26.736 4.58331 26.4523 4.69041C26.0339 3.82792 25.1572 3.22656 24.1359 3.22656C22.7127 3.22656 21.5553 4.3842 21.5553 5.80716V23.8713C21.5553 25.2945 22.7127 26.4519 24.1359 26.4519C25.1572 26.4519 26.0339 25.8509 26.4523 24.988C26.7361 25.0952 27.0404 25.1616 27.3617 25.1616C28.7849 25.1616 29.9423 24.0042 29.9423 22.581C29.9423 22.278 29.8805 21.9907 29.7835 21.7204C31.0036 21.2599 31.8777 20.0896 31.8777 18.7102C31.8777 18.1794 31.7366 17.6851 31.5082 17.2424C32.4759 16.8701 33.168 15.9374 33.168 14.8393C33.168 13.7415 32.4759 12.8083 31.5082 12.4363C31.7366 11.9937 31.8777 11.4995 31.8777 10.9684C31.8777 9.58919 31.0035 8.41897 29.7835 7.95809C29.8805 7.68777 29.9423 7.40084 29.9423 7.09746C29.9423 5.6745 28.7849 4.51686 27.3617 4.51686ZM30.5874 10.9684C30.5874 12.0356 29.7192 12.9038 28.652 12.9038C27.5851 12.9038 26.7165 12.0356 26.7165 10.9684H25.4262C25.4262 12.7472 26.8734 14.1941 28.652 14.1941C29.3809 14.1941 30.0469 13.9421 30.5874 13.5323V13.549C31.299 13.549 31.8777 14.1277 31.8777 14.8393C31.8777 15.5509 31.299 16.1296 30.5874 16.1296V16.1465C30.0469 15.7367 29.3809 15.4844 28.652 15.4844C26.8734 15.4844 25.4262 16.9316 25.4262 18.7102H26.7165C26.7165 17.6432 27.5851 16.7747 28.652 16.7747C29.7192 16.7747 30.5874 17.6432 30.5874 18.7102C30.5874 19.6561 29.9048 20.4424 29.007 20.6096C28.5591 20.2354 27.9901 20.0005 27.3617 20.0005V21.2907C28.0733 21.2907 28.652 21.8694 28.652 22.581C28.652 23.2926 28.0733 23.8713 27.3617 23.8713C26.6501 23.8713 26.0714 23.2926 26.0714 22.581H24.7811C24.7811 23.2013 25.0101 23.7636 25.3758 24.2087C25.2262 24.7559 24.73 25.1616 24.1359 25.1616C23.4243 25.1616 22.8456 24.5829 22.8456 23.8713V5.80716C22.8456 5.09556 23.4243 4.51686 24.1359 4.51686C24.73 4.51686 25.2262 4.9229 25.3758 5.46975C25.0101 5.9149 24.7811 6.47747 24.7811 7.09746H26.0714C26.0714 6.38586 26.6501 5.80716 27.3617 5.80716C28.0733 5.80716 28.652 6.38586 28.652 7.09746C28.652 7.80906 28.0733 8.38776 27.3617 8.38776V9.67806C27.9901 9.67806 28.5591 9.44339 29.007 9.06912C29.9048 9.23637 30.5874 10.0227 30.5874 10.9684Z" fill="#FFA726"/>
<path d="M31.0699 4.02392C28.0553 1.19043 24.1069 -0.230274 19.9632 0.0304469L20.0432 1.318C23.8294 1.08269 27.4332 2.37734 30.1867 4.96391C32.9414 7.55273 34.4589 11.0604 34.4589 14.839C34.4589 19.3926 32.1892 23.615 28.3872 26.1345C27.076 27.0039 26.0836 28.2441 25.4721 29.6775H16.3226C15.7027 28.2337 14.7066 26.9848 13.393 26.1074C9.47485 23.4887 7.22344 19.1153 7.36997 14.4068L6.08031 14.3668C5.91959 19.523 8.38592 24.3131 12.6764 27.1797C13.624 27.8132 14.3806 28.6757 14.9079 29.6775H13.1691V30.9678H15.4226C15.5477 31.3858 15.6479 31.8142 15.6986 32.2581H14.4594V33.5484H15.7497V35.4838C15.7497 35.8408 16.0388 36.129 16.3948 36.129H17.04C17.04 38.2638 18.776 39.9999 20.9109 39.9999C23.0457 39.9999 24.7817 38.2638 24.7817 36.129H25.4269C25.7832 36.129 26.072 35.8408 26.072 35.4838V33.5484H27.3623V32.2581H26.1174C26.1631 31.8149 26.2541 31.3852 26.3766 30.9678H28.6526V29.6775H26.8857C27.4055 28.6868 28.1577 27.8349 29.1006 27.2106C33.2635 24.4498 35.7493 19.8254 35.7493 14.839C35.7493 10.7606 34.0434 6.81815 31.0699 4.02392ZM20.9108 38.7096C19.4875 38.7096 18.3302 37.5522 18.3302 36.129H23.4914C23.4914 37.5522 22.334 38.7096 20.9108 38.7096ZM24.7817 34.8387H17.0399V33.5484H24.7817V34.8387ZM24.8276 32.2581H16.9883C16.945 31.819 16.8754 31.3874 16.7696 30.9678H25.0283C24.9256 31.3867 24.8661 31.8202 24.8276 32.2581ZM5.42718 4.51666C6.85038 4.51666 8.00778 5.6743 8.00778 7.09725C8.00778 7.45418 8.29697 7.7424 8.65293 7.7424C9.00921 7.7424 9.29808 7.45418 9.29808 7.09725C9.29808 5.6743 10.4554 4.51666 11.8787 4.51666C12.235 4.51666 12.5238 4.22844 12.5238 3.87151C12.5238 3.5149 12.235 3.22636 11.8787 3.22636C10.4554 3.22636 9.29808 2.06896 9.29808 0.645758C9.29808 0.474654 9.23011 0.310558 9.10912 0.189569C8.98813 0.0685797 8.82403 0.000608748 8.65293 0.000608748C8.48182 0.000608748 8.31773 0.0685797 8.19674 0.189569C8.07575 0.310558 8.00778 0.474654 8.00778 0.645758C8.00778 2.06896 6.85038 3.22636 5.42718 3.22636C5.25608 3.22636 5.09198 3.29433 4.97099 3.41532C4.85 3.53631 4.78203 3.7004 4.78203 3.87151C4.78203 4.22844 5.07122 4.51666 5.42718 4.51666ZM8.65293 2.78314C8.93991 3.21455 9.30988 3.58453 9.7413 3.87151C9.30995 4.15857 8.93999 4.52853 8.65293 4.95987C8.36595 4.52846 7.99597 4.15848 7.56456 3.87151C7.99604 3.58461 8.36603 3.21462 8.65293 2.78314ZM8.00778 10.9682C8.36406 10.9682 8.65293 10.6799 8.65293 10.323C8.65293 9.96639 8.36406 9.67785 8.00778 9.67785C6.5845 9.67785 5.42718 8.52045 5.42718 7.09725C5.42718 6.92615 5.35921 6.76205 5.23822 6.64106C5.11723 6.52008 4.95313 6.45211 4.78203 6.45211C4.61093 6.45211 4.44683 6.52008 4.32584 6.64106C4.20485 6.76205 4.13688 6.92615 4.13688 7.09725C4.13688 8.52045 2.97948 9.67785 1.55628 9.67785C1.38518 9.67785 1.22108 9.74582 1.10009 9.86681C0.979104 9.9878 0.911133 10.1519 0.911133 10.323C0.911133 10.6799 1.20032 10.9682 1.55628 10.9682C2.97948 10.9682 4.13688 12.1258 4.13688 13.5487C4.13688 13.9057 4.42607 14.1939 4.78203 14.1939C5.13831 14.1939 5.42718 13.9057 5.42718 13.5487C5.42718 12.1258 6.5845 10.9682 8.00778 10.9682ZM4.78203 11.4114C4.49505 10.98 4.12507 10.61 3.69366 10.323C4.125 10.0359 4.49496 9.66598 4.78203 9.23464C5.06918 9.6659 5.43913 10.0358 5.8704 10.323C5.43906 10.6101 5.0691 10.98 4.78203 11.4114Z" fill="#FFA726"/>
</g>
<defs>
<clipPath id="clip0_54_1818">
<rect width="40" height="40" fill="white" transform="translate(0.910156)"/>
</clipPath>
</defs>
</svg>
