<svg width="40" height="36" viewBox="0 0 40 36" fill="none" xmlns="http://www.w3.org/2000/svg">
<g id="Group">
<path id="Vector" d="M32.5149 10.6365C32.4473 10.6365 32.3803 10.6498 32.3178 10.6757C32.2553 10.7016 32.1985 10.7395 32.1507 10.7873C32.1028 10.8351 32.0649 10.8919 32.039 10.9543C32.0131 11.0168 31.9998 11.0838 31.9998 11.1514V13.3019C31.9998 13.4384 32.0541 13.5694 32.1507 13.666C32.2473 13.7625 32.3783 13.8168 32.5149 13.8168C32.6516 13.8168 32.7826 13.7625 32.8792 13.666C32.9758 13.5694 33.0301 13.4384 33.0301 13.3019V11.1514C33.0301 11.0838 33.0168 11.0168 32.9909 10.9543C32.965 10.8919 32.927 10.8351 32.8792 10.7873C32.8314 10.7395 32.7746 10.7016 32.7121 10.6757C32.6496 10.6498 32.5826 10.6365 32.5149 10.6365ZM33.0301 28.6581V26.5076C33.0301 26.371 32.9758 26.2401 32.8792 26.1435C32.7826 26.0469 32.6516 25.9927 32.5149 25.9927C32.3783 25.9927 32.2473 26.0469 32.1507 26.1435C32.0541 26.2401 31.9998 26.371 31.9998 26.5076V28.6581C31.9998 28.7946 32.0541 28.9256 32.1507 29.0222C32.2473 29.1187 32.3783 29.173 32.5149 29.173C32.6516 29.173 32.7826 29.1187 32.8792 29.0222C32.9758 28.9256 33.0301 28.7946 33.0301 28.6581ZM34.3877 30.4693H30.6483C30.5116 30.4693 30.3806 30.5236 30.284 30.6201C30.1874 30.7167 30.1331 30.8477 30.1331 30.9842V34.7218C30.1331 35.0065 30.3634 35.2367 30.6483 35.2367H34.3877C34.6725 35.2367 34.9028 35.0065 34.9028 34.7218V30.9842C34.9028 30.8477 34.8485 30.7167 34.7519 30.6201C34.6553 30.5236 34.5243 30.4693 34.3877 30.4693ZM33.8725 34.2069H31.1634V31.4991H33.8725V34.2069ZM7.08463 3.63381H9.23615C9.37277 3.63381 9.5038 3.57956 9.60041 3.48299C9.69702 3.38643 9.7513 3.25546 9.7513 3.1189C9.7513 2.98234 9.69702 2.85138 9.60041 2.75481C9.5038 2.65825 9.37277 2.604 9.23615 2.604H7.08463C6.948 2.604 6.81697 2.65825 6.72036 2.75481C6.62375 2.85138 6.56948 2.98234 6.56948 3.1189C6.56948 3.25546 6.62375 3.38643 6.72036 3.48299C6.81697 3.57956 6.948 3.63381 7.08463 3.63381ZM10.9271 3.63381H13.0786C13.2152 3.63381 13.3462 3.57956 13.4428 3.48299C13.5394 3.38643 13.5937 3.25546 13.5937 3.1189C13.5937 2.98234 13.5394 2.85138 13.4428 2.75481C13.3462 2.65825 13.2152 2.604 13.0786 2.604H10.9271C10.7904 2.604 10.6594 2.65825 10.5628 2.75481C10.4662 2.85138 10.4119 2.98234 10.4119 3.1189C10.4119 3.25546 10.4662 3.38643 10.5628 3.48299C10.6594 3.57956 10.7904 3.63381 10.9271 3.63381ZM14.7634 3.63381H16.9149C17.0516 3.63381 17.1826 3.57956 17.2792 3.48299C17.3758 3.38643 17.4301 3.25546 17.4301 3.1189C17.4301 2.98234 17.3758 2.85138 17.2792 2.75481C17.1826 2.65825 17.0516 2.604 16.9149 2.604H14.7634C14.6268 2.604 14.4958 2.65825 14.3991 2.75481C14.3025 2.85138 14.2483 2.98234 14.2483 3.1189C14.2483 3.25546 14.3025 3.38643 14.3991 3.48299C14.4958 3.57956 14.6268 3.63381 14.7634 3.63381ZM18.6058 3.63381H20.7574C20.894 3.63381 21.025 3.57956 21.1216 3.48299C21.2182 3.38643 21.2725 3.25546 21.2725 3.1189C21.2725 2.98234 21.2182 2.85138 21.1216 2.75481C21.025 2.65825 20.894 2.604 20.7574 2.604H18.6058C18.4692 2.604 18.3382 2.65825 18.2416 2.75481C18.145 2.85138 18.0907 2.98234 18.0907 3.1189C18.0907 3.25546 18.145 3.38643 18.2416 3.48299C18.3382 3.57956 18.4692 3.63381 18.6058 3.63381ZM22.4483 3.63381H24.5998C24.7364 3.63381 24.8674 3.57956 24.964 3.48299C25.0607 3.38643 25.1149 3.25546 25.1149 3.1189C25.1149 2.98234 25.0607 2.85138 24.964 2.75481C24.8674 2.65825 24.7364 2.604 24.5998 2.604H22.4483C22.3116 2.604 22.1806 2.65825 22.084 2.75481C21.9874 2.85138 21.9331 2.98234 21.9331 3.1189C21.9331 3.25546 21.9874 3.38643 22.084 3.48299C22.1806 3.57956 22.3116 3.63381 22.4483 3.63381ZM26.2846 3.63381H28.4361C28.5728 3.63381 28.7038 3.57956 28.8004 3.48299C28.897 3.38643 28.9513 3.25546 28.9513 3.1189C28.9513 2.98234 28.897 2.85138 28.8004 2.75481C28.7038 2.65825 28.5728 2.604 28.4361 2.604H26.2846C26.148 2.604 26.017 2.65825 25.9204 2.75481C25.8238 2.85138 25.7695 2.98234 25.7695 3.1189C25.7695 3.25546 25.8238 3.38643 25.9204 3.48299C26.017 3.57956 26.148 3.63381 26.2846 3.63381ZM9.23615 32.3351H7.08463C6.948 32.3351 6.81697 32.3893 6.72036 32.4859C6.62375 32.5825 6.56948 32.7134 6.56948 32.85C6.56948 32.9866 6.62375 33.1175 6.72036 33.2141C6.81697 33.3106 6.948 33.3649 7.08463 33.3649H9.23615C9.37277 33.3649 9.5038 33.3106 9.60041 33.2141C9.69702 33.1175 9.7513 32.9866 9.7513 32.85C9.7513 32.7134 9.69702 32.5825 9.60041 32.4859C9.5038 32.3893 9.37277 32.3351 9.23615 32.3351ZM13.0786 32.3351H10.9271C10.7904 32.3351 10.6594 32.3893 10.5628 32.4859C10.4662 32.5825 10.4119 32.7134 10.4119 32.85C10.4119 32.9866 10.4662 33.1175 10.5628 33.2141C10.6594 33.3106 10.7904 33.3649 10.9271 33.3649H13.0786C13.2152 33.3649 13.3462 33.3106 13.4428 33.2141C13.5394 33.1175 13.5937 32.9866 13.5937 32.85C13.5937 32.7134 13.5394 32.5825 13.4428 32.4859C13.3462 32.3893 13.2152 32.3351 13.0786 32.3351ZM16.9149 32.3351H14.7634C14.6268 32.3351 14.4958 32.3893 14.3991 32.4859C14.3025 32.5825 14.2483 32.7134 14.2483 32.85C14.2483 32.9866 14.3025 33.1175 14.3991 33.2141C14.4958 33.3106 14.6268 33.3649 14.7634 33.3649H16.9149C17.1998 33.3649 17.4301 33.1347 17.4301 32.85C17.4306 32.7822 17.4177 32.715 17.392 32.6523C17.3663 32.5896 17.3284 32.5326 17.2805 32.4846C17.2325 32.4367 17.1755 32.3988 17.1127 32.3731C17.05 32.3475 16.9827 32.3345 16.9149 32.3351ZM20.7574 32.3351H18.6058C18.4692 32.3351 18.3382 32.3893 18.2416 32.4859C18.145 32.5825 18.0907 32.7134 18.0907 32.85C18.0907 32.9866 18.145 33.1175 18.2416 33.2141C18.3382 33.3106 18.4692 33.3649 18.6058 33.3649H20.7574C20.894 33.3649 21.025 33.3106 21.1216 33.2141C21.2182 33.1175 21.2725 32.9866 21.2725 32.85C21.2725 32.7134 21.2182 32.5825 21.1216 32.4859C21.025 32.3893 20.894 32.3351 20.7574 32.3351ZM24.5998 32.3351H22.4483C22.3116 32.3351 22.1806 32.3893 22.084 32.4859C21.9874 32.5825 21.9331 32.7134 21.9331 32.85C21.9331 32.9866 21.9874 33.1175 22.084 33.2141C22.1806 33.3106 22.3116 33.3649 22.4483 33.3649H24.5998C24.7364 33.3649 24.8674 33.3106 24.964 33.2141C25.0607 33.1175 25.1149 32.9866 25.1149 32.85C25.1149 32.7134 25.0607 32.5825 24.964 32.4859C24.8674 32.3893 24.7364 32.3351 24.5998 32.3351ZM28.4361 32.3351H26.2846C26.148 32.3351 26.017 32.3893 25.9204 32.4859C25.8238 32.5825 25.7695 32.7134 25.7695 32.85C25.7695 32.9866 25.8238 33.1175 25.9204 33.2141C26.017 33.3106 26.148 33.3649 26.2846 33.3649H28.4361C28.721 33.3649 28.9513 33.1347 28.9513 32.85C28.9519 32.7822 28.9389 32.715 28.9132 32.6523C28.8875 32.5896 28.8496 32.5326 28.8017 32.4846C28.7537 32.4367 28.6967 32.3988 28.634 32.3731C28.5712 32.3475 28.504 32.3345 28.4361 32.3351ZM2.49069 13.3019C2.49069 13.4384 2.54496 13.5694 2.64157 13.666C2.73818 13.7625 2.86922 13.8168 3.00584 13.8168C3.14247 13.8168 3.2735 13.7625 3.37011 13.666C3.46672 13.5694 3.52099 13.4384 3.52099 13.3019V11.1514C3.52099 11.0148 3.46672 10.8839 3.37011 10.7873C3.2735 10.6907 3.14247 10.6365 3.00584 10.6365C2.86922 10.6365 2.73818 10.6907 2.64157 10.7873C2.54496 10.8839 2.49069 11.0148 2.49069 11.1514V13.3019ZM2.49069 17.1424C2.49069 17.279 2.54496 17.41 2.64157 17.5065C2.73818 17.6031 2.86922 17.6573 3.00584 17.6573C3.14247 17.6573 3.2735 17.6031 3.37011 17.5065C3.46672 17.41 3.52099 17.279 3.52099 17.1424V14.992C3.52099 14.8554 3.46672 14.7244 3.37011 14.6279C3.2735 14.5313 3.14247 14.4771 3.00584 14.4771C2.86922 14.4771 2.73818 14.5313 2.64157 14.6279C2.54496 14.7244 2.49069 14.8554 2.49069 14.992V17.1424ZM2.49069 20.9769C2.49069 21.1135 2.54496 21.2445 2.64157 21.341C2.73818 21.4376 2.86922 21.4918 3.00584 21.4918C3.14247 21.4918 3.2735 21.4376 3.37011 21.341C3.46672 21.2445 3.52099 21.1135 3.52099 20.9769V18.8265C3.52099 18.6899 3.46672 18.5589 3.37011 18.4624C3.2735 18.3658 3.14247 18.3116 3.00584 18.3116C2.86922 18.3116 2.73818 18.3658 2.64157 18.4624C2.54496 18.5589 2.49069 18.6899 2.49069 18.8265V20.9769ZM2.49069 24.8175C2.49069 24.9541 2.54496 25.085 2.64157 25.1816C2.73818 25.2782 2.86922 25.3324 3.00584 25.3324C3.14247 25.3324 3.2735 25.2782 3.37011 25.1816C3.46672 25.085 3.52099 24.9541 3.52099 24.8175V22.667C3.52099 22.5305 3.46672 22.3995 3.37011 22.3029C3.2735 22.2064 3.14247 22.1521 3.00584 22.1521C2.86922 22.1521 2.73818 22.2064 2.64157 22.3029C2.54496 22.3995 2.49069 22.5305 2.49069 22.667V24.8175ZM2.49069 28.6581C2.49069 28.7946 2.54496 28.9256 2.64157 29.0222C2.73818 29.1187 2.86922 29.173 3.00584 29.173C3.14247 29.173 3.2735 29.1187 3.37011 29.0222C3.46672 28.9256 3.52099 28.7946 3.52099 28.6581V26.5076C3.52099 26.371 3.46672 26.2401 3.37011 26.1435C3.2735 26.0469 3.14247 25.9927 3.00584 25.9927C2.86922 25.9927 2.73818 26.0469 2.64157 26.1435C2.54496 26.2401 2.49069 26.371 2.49069 26.5076V28.6581ZM3.00584 9.9762C3.29069 9.9762 3.52099 9.746 3.52099 9.46129V7.31082C3.52099 7.17426 3.46672 7.04329 3.37011 6.94673C3.2735 6.85016 3.14247 6.79591 3.00584 6.79591C2.86922 6.79591 2.73818 6.85016 2.64157 6.94673C2.54496 7.04329 2.49069 7.17426 2.49069 7.31082V9.46129C2.49069 9.746 2.72099 9.9762 3.00584 9.9762ZM33.0361 7.31082C33.0361 7.17426 32.9819 7.04329 32.8853 6.94673C32.7887 6.85016 32.6576 6.79591 32.521 6.79591C32.3844 6.79591 32.2533 6.85016 32.1567 6.94673C32.0601 7.04329 32.0058 7.17426 32.0058 7.31082V9.46129C32.0058 9.59785 32.0601 9.72882 32.1567 9.82538C32.2533 9.92195 32.3844 9.9762 32.521 9.9762C32.6576 9.9762 32.7887 9.92195 32.8853 9.82538C32.9819 9.72882 33.0361 9.59785 33.0361 9.46129V7.31082ZM4.87857 0.732178H1.13917C1.00255 0.732178 0.871518 0.786426 0.774908 0.882989C0.678298 0.979552 0.624023 1.11052 0.624023 1.24708V4.98467C0.624023 5.26938 0.854326 5.49957 1.13917 5.49957H4.87857C5.16342 5.49957 5.39372 5.26938 5.39372 4.98467V1.24708C5.39372 1.11052 5.33945 0.979552 5.24284 0.882989C5.14623 0.786426 5.0152 0.732178 4.87857 0.732178ZM4.36342 4.46977H1.65433V1.76198H4.36342V4.46977ZM30.6422 5.49957H34.3816C34.6665 5.49957 34.8968 5.26938 34.8968 4.98467V1.24708C34.8968 1.11052 34.8425 0.979552 34.7459 0.882989C34.6493 0.786426 34.5182 0.732178 34.3816 0.732178H30.6422C30.5056 0.732178 30.3745 0.786426 30.2779 0.882989C30.1813 0.979552 30.1271 1.11052 30.1271 1.24708V4.98467C30.1271 5.26938 30.3574 5.49957 30.6422 5.49957ZM31.1634 1.76198H33.8725V4.46977H31.1634V1.76198ZM4.87857 30.4693H1.13917C1.00255 30.4693 0.871518 30.5236 0.774908 30.6201C0.678298 30.7167 0.624023 30.8477 0.624023 30.9842V34.7218C0.624023 35.0065 0.854326 35.2367 1.13917 35.2367H4.87857C5.16342 35.2367 5.39372 35.0065 5.39372 34.7218V30.9842C5.39372 30.8477 5.33945 30.7167 5.24284 30.6201C5.14623 30.5236 5.0152 30.4693 4.87857 30.4693ZM4.36342 34.2069H1.65433V31.4991H4.36342V34.2069ZM38.9271 22.9881L37.0301 21.1466L26.3089 10.6971C26.3089 10.6971 26.3028 10.6971 26.3028 10.691L26.2968 10.6849C26.243 10.6351 26.1788 10.5978 26.1089 10.5759C26.1028 10.5698 26.0968 10.5638 26.0846 10.5638L22.3089 9.46735C22.1133 9.41121 21.9061 9.40934 21.7095 9.46193C21.5129 9.51452 21.3344 9.6196 21.193 9.7659C21.0516 9.91219 20.9527 10.0942 20.9069 10.2924C20.8612 10.4906 20.8702 10.6975 20.9331 10.8909L22.1392 14.6406L22.1574 14.677C22.1574 14.683 22.1634 14.683 22.1634 14.6891C22.1937 14.7618 22.2361 14.8223 22.2968 14.8708L31.418 23.7756L32.9937 25.3021C32.9998 25.3082 32.9998 25.3142 33.0058 25.3203L34.9028 27.1618C35.1816 27.4344 35.5513 27.5798 35.9392 27.5798H35.9634C36.3634 27.5738 36.7331 27.4102 37.0119 27.1255L38.9755 25.1022C39.5331 24.5086 39.5149 23.5636 38.9271 22.9881ZM21.9271 10.4729C21.9513 10.4487 21.9695 10.4426 21.9877 10.4426C21.9998 10.4426 22.0119 10.4426 22.018 10.4487L24.9695 11.3089L23.4604 12.8657L22.8543 13.4957L21.9089 10.5638C21.9028 10.5517 21.8846 10.5153 21.9271 10.4729ZM23.3513 14.4589L25.1513 12.5992L25.9452 11.7814L35.9392 21.5282L33.3392 24.2057L23.3513 14.4589ZM38.218 24.3753L36.2543 26.3986C36.0786 26.5803 35.7877 26.5864 35.6058 26.4107L34.0786 24.9265L36.6846 22.243L38.2119 23.7271C38.3877 23.9028 38.3937 24.1936 38.218 24.3753ZM8.33311 12.1448C8.33311 13.7622 9.64827 15.0768 11.2664 15.0768C12.8846 15.0768 14.1998 13.7622 14.1998 12.1448C14.1998 10.5274 12.8846 9.21293 11.2664 9.21293C9.64827 9.21293 8.33311 10.5274 8.33311 12.1448ZM13.1695 12.1448C13.1695 13.1928 12.3149 14.047 11.2664 14.047C10.218 14.047 9.36342 13.1928 9.36342 12.1448C9.36342 11.0969 10.218 10.2427 11.2664 10.2427C12.3149 10.2427 13.1695 11.0969 13.1695 12.1448Z" fill="#FFA726"/>
<path id="Vector_2" d="M29.1272 23.5999C28.9906 23.5999 28.8595 23.6542 28.7629 23.7507C28.6663 23.8473 28.612 23.9782 28.612 24.1148V26.2956C28.612 26.3501 28.5999 26.3986 28.5939 26.447L24.9817 20.674C24.6423 20.1288 24.0545 19.8078 23.412 19.8078C22.7696 19.8078 22.1817 20.1349 21.8423 20.674L20.1393 23.4L16.0605 16.8698C15.7211 16.3246 15.1333 16.0036 14.4908 16.0036C13.8484 16.0036 13.2605 16.3307 12.9211 16.8698L6.92719 26.4531C6.92113 26.4046 6.91507 26.3561 6.91507 26.3077V9.21897C6.91507 8.84945 7.06193 8.49507 7.32334 8.23378C7.58476 7.97249 7.93931 7.8257 8.30901 7.8257H27.3575C28.0484 7.8257 28.612 8.38907 28.612 9.07964V10.8788C28.612 11.0153 28.6663 11.1463 28.7629 11.2429C28.8595 11.3394 28.9906 11.3937 29.1272 11.3937C29.2638 11.3937 29.3948 11.3394 29.4915 11.2429C29.5881 11.1463 29.6423 11.0153 29.6423 10.8788V9.07964C29.6423 7.81965 28.6181 6.7959 27.3575 6.7959H8.30901C6.96961 6.7959 5.88477 7.88628 5.88477 9.21897V26.3077C5.88477 26.8892 6.09689 27.4102 6.44234 27.8282C6.44234 27.8342 6.4484 27.8342 6.45446 27.8403C6.89689 28.3794 7.56355 28.7247 8.31507 28.7247H27.2181C28.5575 28.7247 29.6423 27.6343 29.6423 26.3016V24.1209C29.6423 23.8301 29.412 23.5999 29.1272 23.5999ZM7.52113 27.4465L13.7939 17.415C13.9454 17.1727 14.1999 17.0334 14.4848 17.0334C14.7696 17.0334 15.0242 17.1727 15.1757 17.415L19.5272 24.3692L17.4484 27.6888H8.29689C8.0181 27.6888 7.74537 27.604 7.52113 27.4465ZM18.6787 27.6888L22.7272 21.2192C23.0302 20.7346 23.806 20.7346 24.1151 21.2192L28.006 27.4405C27.7817 27.5919 27.509 27.6828 27.2181 27.6828H18.6787V27.6888Z" fill="#FFA726"/>
</g>
</svg>
