<svg width="49" height="48" viewBox="0 0 49 48" fill="none" xmlns="http://www.w3.org/2000/svg">
<path d="M41 0.75H30.5C29.2595 0.75 28.25 1.7595 28.25 3V4.5C26.5955 4.5 25.25 5.8455 25.25 7.5C25.25 9.1545 26.5955 10.5 28.25 10.5V14.25H34.25V12.75C34.25 11.9227 34.9227 11.25 35.75 11.25C36.5773 11.25 37.25 11.9227 37.25 12.75V14.25H41C42.2405 14.25 43.25 13.2405 43.25 12V3C43.25 1.7595 42.2405 0.75 41 0.75ZM41.75 12C41.75 12.4132 41.414 12.75 41 12.75H38.75C38.75 11.0955 37.4045 9.75 35.75 9.75C34.0955 9.75 32.75 11.0955 32.75 12.75H29.75V9H28.25C27.4227 9 26.75 8.32725 26.75 7.5C26.75 6.67275 27.4227 6 28.25 6H29.75V3C29.75 2.58675 30.086 2.25 30.5 2.25H41C41.414 2.25 41.75 2.58675 41.75 3V12Z" fill="#444444"/>
<path d="M28.25 15.75C26.5955 15.75 25.25 17.0955 25.25 18.75H22.25V15H20.75C19.9228 15 19.25 14.3273 19.25 13.5C19.25 12.6727 19.9228 12 20.75 12H22.25V5.25H20.2393C12.2503 5.25 5.75002 11.7502 5.75002 19.7393C5.74632 21.886 6.22145 24.0065 7.14081 25.9464C8.06017 27.8864 9.40061 29.5968 11.0645 30.9533L14 33.3555V35.3888C13.5626 35.5429 13.1836 35.8287 12.915 36.2068C12.6465 36.585 12.5015 37.0369 12.5 37.5007C12.5 38.538 13.2088 39.405 14.165 39.6637C14.0608 39.9225 14 40.2038 14 40.5C14 41.4915 14.6488 42.3255 15.5405 42.6247C15.851 45.2257 18.0673 47.25 20.75 47.25C23.4328 47.25 25.649 45.2257 25.9595 42.6247C26.4066 42.4768 26.7959 42.192 27.0723 41.8108C27.3488 41.4295 27.4984 40.9709 27.5 40.5C27.5 40.2038 27.4393 39.9225 27.335 39.663C27.8116 39.5353 28.2328 39.2543 28.5338 38.8634C28.8347 38.4725 28.9985 37.9933 29 37.5C28.9985 37.0362 28.8536 36.5842 28.585 36.2061C28.3164 35.828 27.9374 35.5422 27.5 35.388V33.3547L30.4355 30.9525C32.0995 29.5963 33.44 27.886 34.3594 25.9462C35.2787 24.0064 35.7538 21.8859 35.75 19.7393V18.75H31.25C31.25 17.0955 29.9045 15.75 28.25 15.75ZM20.2393 6.75H20.75V10.5C19.0955 10.5 17.75 11.8455 17.75 13.5C17.75 15.1545 19.0955 16.5 20.75 16.5V18.75H17.75C17.75 17.0955 16.4045 15.75 14.75 15.75C13.0955 15.75 11.75 17.0955 11.75 18.75H7.28752C7.79452 12.048 13.4098 6.75 20.2393 6.75ZM12.014 29.7922C10.589 28.6309 9.42801 27.1791 8.60833 25.5337C7.78866 23.8883 7.32918 22.087 7.26052 20.25H13.25V18.75C13.25 17.9227 13.9228 17.25 14.75 17.25C15.5773 17.25 16.25 17.9227 16.25 18.75V20.25H20.75V23.25C19.0955 23.25 17.75 24.5955 17.75 26.25C17.75 27.9045 19.0955 29.25 20.75 29.25V35.25H15.5V32.6445L12.014 29.7922ZM20.75 45.75C19.886 45.7486 19.0489 45.4495 18.3797 44.9031C17.7104 44.3566 17.2499 43.5962 17.0758 42.75H24.4243C24.2501 43.5962 23.7896 44.3566 23.1204 44.9031C22.4511 45.4495 21.614 45.7486 20.75 45.75ZM25.25 41.25H16.25C16.0569 41.2414 15.8746 41.1586 15.741 41.0189C15.6074 40.8792 15.5328 40.6933 15.5328 40.5C15.5328 40.3067 15.6074 40.1208 15.741 39.9811C15.8746 39.8414 16.0569 39.7586 16.25 39.75H25.25C25.4431 39.7586 25.6255 39.8414 25.7591 39.9811C25.8927 40.1208 25.9672 40.3067 25.9672 40.5C25.9672 40.6933 25.8927 40.8792 25.7591 41.0189C25.6255 41.1586 25.4431 41.2414 25.25 41.25ZM26.75 38.25H14.75C14.5569 38.2414 14.3746 38.1586 14.241 38.0189C14.1074 37.8792 14.0328 37.6933 14.0328 37.5C14.0328 37.3067 14.1074 37.1208 14.241 36.9811C14.3746 36.8414 14.5569 36.7586 14.75 36.75H26.75C26.9431 36.7586 27.1255 36.8414 27.2591 36.9811C27.3927 37.1208 27.4672 37.3067 27.4672 37.5C27.4672 37.6933 27.3927 37.8792 27.2591 38.0189C27.1255 38.1586 26.9431 38.2414 26.75 38.25ZM29.486 29.7922L26 32.6445V35.25H22.25V27.75H20.75C19.9228 27.75 19.25 27.0772 19.25 26.25C19.25 25.4228 19.9228 24.75 20.75 24.75H22.25V20.25H26.75V18.75C26.75 17.9227 27.4228 17.25 28.25 17.25C29.0773 17.25 29.75 17.9227 29.75 18.75V20.25H34.2395C34.1709 22.087 33.7114 23.8883 32.8917 25.5337C32.072 27.1791 30.911 28.6309 29.486 29.7922Z" fill="#444444"/>
</svg>
