<svg width="41" height="40" viewBox="0 0 41 40" fill="none" xmlns="http://www.w3.org/2000/svg">
<g clip-path="url(#clip0_54_1805)">
<path d="M9.61857 16.039C9.59967 16.4478 9.25287 16.7638 8.84404 16.7449C8.43529 16.7259 8.1192 16.3792 8.13818 15.9703C8.15717 15.5615 8.50389 15.2455 8.91271 15.2645C9.32146 15.2835 9.63748 15.6303 9.61857 16.039ZM39.1911 28.3678L36.9675 29.2299C36.7706 29.3064 36.5612 29.3457 36.3499 29.3458C35.6626 29.3458 35.0127 28.9295 34.7497 28.2512L34.5558 27.7509L32.7461 28.506C32.8333 29.0186 32.7494 29.5515 32.4949 30.0144C32.1929 30.5635 31.6928 30.9614 31.0867 31.1349C31.0618 31.142 31.0367 31.1488 31.0116 31.1551C31.2096 31.7516 31.17 32.4233 30.8468 33.0109C30.3698 33.8782 29.4186 34.3229 28.4914 34.1999C28.5206 34.6395 28.4233 35.0782 28.2109 35.4641C27.9098 36.0116 27.4115 36.4088 26.808 36.5824C26.4308 36.691 26.0422 36.7035 25.6712 36.6228C25.684 37.0372 25.5852 37.4474 25.3852 37.8106C25.084 38.3581 24.5644 38.7694 23.9599 38.9388C23.7548 38.9967 23.5428 39.0261 23.3297 39.0263C22.937 39.0263 22.5512 38.9248 22.2041 38.7254L21.5912 38.3734C21.2872 38.8013 20.8521 39.1158 20.3392 39.2712C20.1128 39.3401 19.8775 39.3752 19.6409 39.3754C19.2506 39.3752 18.8664 39.2784 18.5226 39.0937C18.0173 38.8242 17.6262 38.3815 17.4211 37.8468C16.7737 38.1221 16.0143 38.1095 15.3584 37.7588C14.894 37.5103 14.5367 37.1206 14.3233 36.6623C13.641 37.0317 12.7932 37.0635 12.0612 36.6721C11.1459 36.1824 10.6795 35.1774 10.8283 34.2052C10.4187 34.2151 10.0135 34.1188 9.65217 33.9256C9.09193 33.626 8.68139 33.1243 8.49615 32.5131C8.31092 31.9018 8.37396 31.2567 8.67357 30.6964L9.27201 29.5775C9.13826 29.2595 9.07232 28.9119 9.00912 28.5721C8.89451 27.9558 8.80529 27.574 8.53279 27.4682C8.42553 27.4267 8.17115 27.3208 7.23857 26.9051L6.99818 27.449C6.81357 27.8667 6.47631 28.1879 6.04857 28.3535C5.8505 28.4305 5.63985 28.4702 5.42732 28.4704C5.1924 28.4704 4.95826 28.4215 4.73748 28.3239L2.55623 27.3599C1.69185 26.9777 1.29935 25.9635 1.68139 25.0992L6.68912 13.7682C6.87373 13.3506 7.21107 13.0294 7.63881 12.8638C8.06678 12.6983 8.5324 12.7088 8.9499 12.8935L11.1311 13.8575C11.5487 14.0421 11.87 14.3794 12.0354 14.8071C12.201 15.2349 12.1904 15.7006 12.0059 16.1182L11.6303 16.9681L13.0501 17.6231C13.0652 17.6301 13.0801 17.6377 13.0947 17.6459C13.5135 17.8816 13.9426 17.9348 14.4097 17.897C12.8943 16.1013 12.071 13.8394 12.071 11.4117V4.76978C12.071 4.64747 12.1069 4.52784 12.1742 4.42573C12.2416 4.32362 12.3374 4.24351 12.4498 4.19533L20.664 0.675017C20.7418 0.641694 20.8255 0.624512 20.9102 0.624512C20.9948 0.624512 21.0786 0.641694 21.1564 0.675017L29.3706 4.19533C29.483 4.24351 29.5789 4.32362 29.6462 4.42573C29.7135 4.52784 29.7494 4.64747 29.7494 4.76978V11.4117C29.7494 13.9039 28.8807 16.2241 27.2857 18.0424C28.178 18.3838 28.7977 18.5424 29.3747 18.2422L30.6126 17.5795L30.2719 16.7006C29.9303 15.8194 30.3693 14.8245 31.2505 14.4828L33.474 13.6208C34.3549 13.2792 35.3502 13.7181 35.6919 14.5994L40.1697 26.15C40.5113 27.0313 40.0722 28.0261 39.1911 28.3678ZM13.3211 11.4117C13.3211 13.7865 14.2176 15.9785 15.8517 17.6217C16.209 17.5384 16.5874 17.4538 16.9864 17.3962C15.2762 15.9272 14.2586 13.8024 14.2586 11.4117V6.2122C14.2586 5.9622 14.4076 5.73619 14.6374 5.63775L20.664 3.05494C20.7418 3.02162 20.8256 3.00443 20.9103 3.00443C20.9949 3.00443 21.0787 3.02162 21.1565 3.05494L27.1832 5.63775C27.2956 5.68594 27.3914 5.76605 27.4588 5.86816C27.5261 5.97027 27.562 6.08989 27.562 6.2122V11.4117C27.562 13.6933 26.6237 15.7786 24.9879 17.2594C25.3535 17.3378 25.7008 17.4435 26.0304 17.5593C27.6252 15.9234 28.4995 13.7553 28.4995 11.4117V5.18189L20.9102 1.92947L13.3211 5.18189V11.4117ZM22.9792 17.1846C25.0982 15.9568 26.3119 13.8585 26.3119 11.4117V6.62439L20.9102 4.30939L15.5086 6.62431V11.4117C15.5086 14.573 17.6338 17.1855 20.8207 17.9806C21.5904 17.5299 22.3089 17.2869 22.9792 17.1846ZM10.8626 15.6128C10.8872 15.5571 10.9005 15.4971 10.9018 15.4362C10.903 15.3753 10.8921 15.3148 10.8698 15.2581C10.8482 15.2012 10.8155 15.1492 10.7736 15.105C10.7317 15.0608 10.6815 15.0254 10.6258 15.0007L8.44459 14.0367C8.21092 13.9335 7.93592 14.0394 7.83248 14.2735L2.82443 25.6043C2.77481 25.7169 2.77188 25.8446 2.81629 25.9594C2.8607 26.0741 2.94882 26.1666 3.06131 26.2164L5.24256 27.1804C5.3549 27.2301 5.48084 27.2326 5.59717 27.1875C5.71349 27.1424 5.80498 27.0558 5.85459 26.9435L10.8626 15.6128ZM11.4753 32.7167L12.9038 30.2442C13.1387 29.7037 12.9202 29.0684 12.3991 28.7903C11.8462 28.4952 11.1565 28.704 10.8612 29.2559L9.7756 31.2859C9.63342 31.5517 9.60381 31.8588 9.69217 32.1504C9.7806 32.442 9.97568 32.681 10.2415 32.8231C10.6375 33.035 11.1224 32.9902 11.4753 32.7167ZM14.1915 35.0971L15.7696 32.041C15.8648 31.5565 15.6299 31.0488 15.1937 30.816C14.794 30.6027 14.3057 30.6495 13.9525 30.9279L12.1847 34.0324C11.8894 34.5847 12.0983 35.2743 12.6507 35.5698C13.2023 35.8647 13.8934 35.6528 14.1915 35.0971ZM17.3858 36.343L18.7853 33.6531C18.8801 33.1688 18.6452 32.6616 18.2093 32.4289C17.7747 32.1969 17.2256 32.2805 16.876 32.6228L15.3515 35.5753C15.3216 36.0192 15.5533 36.4454 15.9478 36.6564C16.4384 36.9188 17.05 36.7829 17.3858 36.343ZM20.6493 37.5256L21.6904 35.5788C21.8953 35.1956 21.8597 34.7195 21.5997 34.3659C21.5007 34.2309 21.3724 34.1201 21.2245 34.0416C20.79 33.8094 20.2404 33.8934 19.8908 34.2365L18.5187 36.8738C18.4725 37.3315 18.7034 37.773 19.112 37.9914C19.3777 38.1335 19.6847 38.1631 19.9765 38.0748C20.2682 37.9864 20.5072 37.7914 20.6493 37.5256ZM23.8601 35.7287C23.8264 35.7098 23.0605 35.2644 23.0605 35.2644C23.0324 35.5764 22.9445 35.8844 22.7927 36.1683L22.1979 37.2805L22.8265 37.6415C23.0656 37.7788 23.3483 37.812 23.6225 37.7353C23.9061 37.6557 24.1494 37.4636 24.2899 37.2081C24.5769 36.6861 24.3841 36.0225 23.8601 35.7287ZM31.4197 28.4202C31.3204 28.2156 31.1614 28.046 30.9636 27.9338L25.0497 24.5631C24.0454 23.9906 22.7908 24.4985 21.3383 25.0866C20.2524 25.5262 19.0317 26.0202 17.7948 26.0203C16.5863 26.0204 15.3625 25.549 14.2322 24.0947C14.1596 24.0014 14.1078 23.8937 14.0802 23.7788C14.0527 23.6638 14.05 23.5443 14.0724 23.4283C14.0949 23.3123 14.1419 23.2023 14.2102 23.106C14.2786 23.0096 14.3668 22.9289 14.469 22.8694C16.1367 21.8961 17.5452 20.8336 18.6554 19.7117C18.9516 19.4124 19.2414 19.1452 19.5249 18.9063C18.2463 18.3453 17.1527 18.6007 16.006 18.8693C14.8726 19.1349 13.701 19.4094 12.5047 18.748L11.1248 18.1114L7.74357 25.7617C8.58068 26.1347 8.88412 26.2638 8.9849 26.3028C9.8181 26.6263 10.0548 27.4221 10.1894 28.091C10.9137 27.3795 12.0455 27.1845 12.9876 27.6874C13.6855 28.0599 14.126 28.7369 14.2263 29.4727C14.7572 29.3745 15.3057 29.4593 15.7822 29.7133C16.0637 29.8631 16.3122 30.0681 16.5129 30.3159C16.7136 30.5638 16.8624 30.8495 16.9504 31.1561C17.254 31.0595 17.574 31.0247 17.8913 31.0539C18.2086 31.0831 18.5168 31.1757 18.7977 31.3261C19.0793 31.4759 19.3278 31.6808 19.5285 31.9287C19.7292 32.1765 19.8779 32.4622 19.9659 32.7688C20.2696 32.672 20.5897 32.6373 20.9071 32.6665C21.2245 32.6958 21.5327 32.7885 21.8137 32.9391C22.0897 33.0859 22.3337 33.2864 22.5315 33.5286L25.6445 35.2907C25.8935 35.4291 26.1837 35.4612 26.462 35.3811C26.7437 35.3 26.9757 35.1156 27.1154 34.8616C27.4008 34.3425 27.2066 33.6803 26.6823 33.3852C26.6481 33.366 22.3135 30.9143 22.3135 30.9143C22.242 30.8741 22.1791 30.8201 22.1284 30.7556C22.0777 30.691 22.0402 30.6171 22.0181 30.538C21.996 30.459 21.9896 30.3764 21.9994 30.2949C22.0092 30.2134 22.035 30.1346 22.0753 30.0631C22.1155 29.9916 22.1694 29.9287 22.234 29.878C22.2986 29.8273 22.3725 29.7898 22.4515 29.7677C22.5306 29.7456 22.6132 29.7392 22.6947 29.749C22.7762 29.7588 22.8549 29.7846 22.9265 29.8249L28.2782 32.8363C28.8021 33.1242 29.4631 32.9323 29.7512 32.4084C30.0368 31.8893 29.8425 31.227 29.3182 30.9319L29.3176 30.9316C28.0619 30.2282 26.6387 29.4311 25.244 28.6327C24.9444 28.4612 24.8406 28.0793 25.012 27.7798C25.1834 27.4803 25.5651 27.3763 25.865 27.5479C27.2554 28.3438 28.6764 29.1398 29.9301 29.842C30.1767 29.9801 30.4651 30.0125 30.7425 29.9331C31.0258 29.852 31.259 29.667 31.3993 29.412C31.569 29.104 31.5762 28.7425 31.4197 28.4202ZM34.1037 26.585L31.0678 18.7537L29.9579 19.3477C28.7535 19.9744 27.5746 19.5051 26.4345 19.0514C24.5415 18.2979 22.584 17.5189 19.544 20.591C18.4545 21.692 17.1053 22.7342 15.5287 23.6931C17.1475 25.4349 18.8808 24.7331 20.8692 23.9281C22.4761 23.2774 24.1379 22.6048 25.6686 23.4772L31.5826 26.848C31.8228 26.9846 32.0374 27.1621 32.2166 27.3724L34.1037 26.585ZM39.0042 26.6018L34.5264 15.0512C34.4817 14.9365 34.3934 14.8442 34.2808 14.7946C34.1682 14.7449 34.0406 14.7419 33.9258 14.7863L31.7023 15.6482C31.5877 15.6928 31.4954 15.7811 31.4457 15.8937C31.396 16.0062 31.393 16.1339 31.4373 16.2487L35.9151 27.7994C35.9598 27.9141 36.048 28.0064 36.1606 28.056C36.2732 28.1057 36.4009 28.1087 36.5157 28.0644L38.7393 27.2024C38.8539 27.1577 38.9462 27.0694 38.9958 26.9568C39.0455 26.8443 39.0485 26.7166 39.0042 26.6018ZM33.4013 15.9912C32.9932 15.9912 32.6603 16.324 32.6603 16.7322C32.6603 17.1403 32.9932 17.4732 33.4013 17.4732C33.8094 17.4732 34.1423 17.1403 34.1423 16.7322C34.1423 16.324 33.8094 15.9912 33.4013 15.9912ZM21.1755 14.2302C21.0247 14.3818 20.8453 14.5021 20.6477 14.5839C20.45 14.6657 20.2382 14.7076 20.0243 14.707C19.8104 14.7076 19.5985 14.6657 19.4009 14.5839C19.2033 14.502 19.0239 14.3818 18.8731 14.2302L16.6504 12.0075C16.0158 11.3728 16.0157 10.3399 16.6504 9.70509C16.9579 9.39759 17.3668 9.2283 17.8017 9.2283C18.2366 9.2283 18.6455 9.39759 18.9529 9.70509L20.0198 10.772L22.8665 7.89713C23.0164 7.74493 23.195 7.62404 23.3921 7.54147C23.5891 7.45889 23.8006 7.41628 24.0142 7.41611H24.0205C24.2335 7.41552 24.4445 7.45704 24.6413 7.53826C24.8382 7.61948 25.017 7.73881 25.1676 7.88939C25.8022 8.52049 25.8057 9.55158 25.1752 10.1879C24.6799 10.6878 24.1858 11.1889 23.6918 11.6901C22.8693 12.5242 22.0187 13.3869 21.1755 14.2302ZM20.2916 13.3463C21.1318 12.5061 21.9807 11.6451 22.8016 10.8124C23.2965 10.3106 23.7912 9.80869 24.2873 9.30806C24.4335 9.16049 24.433 8.92174 24.2862 8.77572C24.2147 8.70463 24.1196 8.66869 24.019 8.66611C23.9698 8.66614 23.9211 8.67593 23.8757 8.69492C23.8304 8.71391 23.7892 8.74172 23.7547 8.77674L20.4662 12.098C20.4082 12.1565 20.3393 12.203 20.2633 12.2348C20.1874 12.2665 20.1059 12.283 20.0236 12.2832H20.022C19.8563 12.2832 19.6973 12.2174 19.5801 12.1002L18.069 10.5891C17.9976 10.5177 17.9026 10.4784 17.8016 10.4784C17.7006 10.4784 17.6056 10.5177 17.5343 10.5891C17.4635 10.66 17.4237 10.7562 17.4237 10.8564C17.4237 10.9567 17.4635 11.0528 17.5343 11.1238L19.7569 13.3463C19.7919 13.3816 19.8335 13.4095 19.8794 13.4285C19.9253 13.4475 19.9745 13.4572 20.0242 13.457C20.0739 13.4572 20.1231 13.4475 20.169 13.4284C20.2149 13.4094 20.2566 13.3815 20.2916 13.3463Z" fill="#FFA726"/>
</g>
<defs>
<clipPath id="clip0_54_1805">
<rect width="40" height="40" fill="white" transform="translate(0.910156)"/>
</clipPath>
</defs>
</svg>
