<svg width="40" height="40" viewBox="0 0 40 40" fill="none" xmlns="http://www.w3.org/2000/svg">
<g id="Group">
<path id="Vector" d="M35.6313 4.52437H32.7141L32.9729 3.9418C33.0241 3.82638 33.0392 3.69813 33.0161 3.57396C32.993 3.4498 32.9329 3.33554 32.8436 3.24625L31.6427 2.04531C31.5534 1.95606 31.4391 1.89594 31.3149 1.87288C31.1907 1.84981 31.0625 1.86488 30.9471 1.91609L30.2188 2.23961C29.8574 2.04395 29.4768 1.88614 29.083 1.76867L28.7969 1.02555C28.7516 0.907662 28.6715 0.806288 28.5674 0.734785C28.4633 0.663281 28.3399 0.625005 28.2136 0.625H26.5154C26.3891 0.624999 26.2658 0.663264 26.1617 0.734752C26.0575 0.806241 25.9775 0.907599 25.9321 1.02547L25.6461 1.76859C25.2523 1.88605 24.8717 2.04387 24.5103 2.23953L23.7821 1.91602C23.6666 1.86471 23.5384 1.8496 23.4142 1.87267C23.29 1.89574 23.1757 1.9559 23.0864 2.04523L21.8856 3.24609C21.7963 3.33541 21.7361 3.44968 21.713 3.57385C21.69 3.69803 21.705 3.82628 21.7563 3.94172L22.015 4.5243H20.0729V3.24227C20.0729 2.13156 19.1693 1.22805 18.0587 1.22805H17.503C16.3924 1.22805 15.4888 2.13156 15.4888 3.24227V4.52437H4.36832C2.4577 4.52437 0.90332 6.07875 0.90332 7.98953V27.5276C0.90332 29.4382 2.4577 30.9927 4.36832 30.9927H13.5695V34.2548H9.8716C8.19152 34.2548 6.82465 35.4033 6.82465 36.815V38.75C6.82465 38.9158 6.8905 39.0747 7.00771 39.1919C7.12492 39.3092 7.28389 39.375 7.44965 39.375H32.5501C32.7159 39.375 32.8748 39.3092 32.9921 39.1919C33.1093 39.0747 33.1751 38.9158 33.1751 38.75V36.8148C33.1751 35.4032 31.8082 34.2547 30.1282 34.2547H26.4302V30.9925H35.6314C37.542 30.9925 39.0964 29.4381 39.0964 27.5274V7.98953C39.0964 6.07883 37.5419 4.52437 35.6313 4.52437ZM22.7377 6.41977C22.8541 5.93036 23.048 5.46272 23.312 5.03453C23.3652 4.94809 23.3966 4.84997 23.4035 4.74866C23.4103 4.64736 23.3923 4.54592 23.3511 4.45312L23.0729 3.82664L23.6668 3.23266L24.2935 3.51094C24.3862 3.55217 24.4877 3.57016 24.589 3.56337C24.6903 3.55658 24.7884 3.5252 24.8748 3.47195C25.303 3.20803 25.7705 3.01416 26.2598 2.89766C26.3586 2.87419 26.4501 2.82701 26.5265 2.7602C26.603 2.69338 26.6619 2.60896 26.6984 2.51422L26.9446 1.875H27.7846L28.0307 2.5143C28.0671 2.60903 28.1261 2.69345 28.2025 2.76026C28.279 2.82707 28.3705 2.87425 28.4693 2.89773C28.9585 3.01423 29.4261 3.2081 29.8543 3.47203C29.9407 3.5253 30.0388 3.55668 30.1401 3.56348C30.2414 3.57027 30.3428 3.55226 30.4356 3.51102L31.0623 3.23273L31.6563 3.82672L31.378 4.45336C31.3368 4.54614 31.3188 4.64756 31.3256 4.74886C31.3324 4.85015 31.3638 4.94826 31.4171 5.03469C31.681 5.46285 31.8749 5.93044 31.9914 6.41977C32.0149 6.51851 32.0621 6.61004 32.1289 6.68644C32.1957 6.76284 32.2802 6.82182 32.3749 6.85828L33.014 7.1043V7.9443L32.375 8.19023C32.2803 8.22669 32.1959 8.28567 32.1291 8.36208C32.0622 8.43848 32.015 8.53001 31.9915 8.62875C31.8751 9.1182 31.6812 9.5859 31.4171 10.0141C31.3639 10.1006 31.3326 10.1987 31.3258 10.3C31.319 10.4013 31.337 10.5028 31.3782 10.5955L31.6564 11.222L31.0624 11.8159L30.4357 11.5377C30.3429 11.4964 30.2415 11.4785 30.1402 11.4853C30.0389 11.492 29.9408 11.5234 29.8543 11.5766C29.4262 11.8406 28.9586 12.0345 28.4693 12.1509C28.3706 12.1744 28.279 12.2216 28.2026 12.2884C28.1262 12.3552 28.0672 12.4396 28.0307 12.5344L27.7847 13.1737H26.9447L26.6988 12.5346C26.6623 12.4399 26.6033 12.3554 26.5269 12.2886C26.4505 12.2218 26.359 12.1746 26.2602 12.1512C25.7708 12.0347 25.3031 11.8408 24.8749 11.5768C24.7884 11.5236 24.6903 11.4922 24.589 11.4854C24.4877 11.4786 24.3862 11.4966 24.2934 11.5377L23.6671 11.816L23.0731 11.222L23.3514 10.5953C23.3927 10.5025 23.4106 10.4011 23.4038 10.2998C23.397 10.1985 23.3656 10.1004 23.3124 10.014C23.0485 9.58584 22.8546 9.11828 22.7382 8.62898C22.7147 8.53023 22.6675 8.43868 22.6006 8.36227C22.5338 8.28585 22.4494 8.22685 22.3546 8.19039L21.7154 7.94438V7.10437L22.3544 6.85844C22.4491 6.82192 22.5335 6.76289 22.6003 6.68647C22.667 6.61004 22.7142 6.5185 22.7377 6.41977ZM15.5725 17.6692L17.2396 20.5566C17.2944 20.6517 17.3733 20.7306 17.4683 20.7855C17.5633 20.8404 17.6711 20.8693 17.7808 20.8693C17.8905 20.8693 17.9983 20.8404 18.0933 20.7855C18.1884 20.7306 18.2672 20.6517 18.3221 20.5566L19.9891 17.6692C20.044 17.5742 20.0728 17.4664 20.0729 17.3567V8.14937H20.4652V8.37352C20.4652 8.49982 20.5035 8.62316 20.5749 8.72728C20.6464 8.8314 20.7478 8.91142 20.8657 8.9568L21.6088 9.24281C21.7262 9.63661 21.884 10.0172 22.0796 10.3786L21.7562 11.1069C21.7049 11.2223 21.6899 11.3505 21.7129 11.4747C21.736 11.5989 21.7962 11.7131 21.8855 11.8024L23.0864 13.0034C23.1757 13.0927 23.29 13.1528 23.4141 13.1759C23.5383 13.1989 23.6666 13.1838 23.782 13.1326L24.5099 12.8092C24.8714 13.005 25.2522 13.1628 25.6461 13.2802L25.9321 14.0231C25.9774 14.141 26.0575 14.2424 26.1616 14.3138C26.2657 14.3853 26.389 14.4236 26.5154 14.4236H28.2136C28.3399 14.4236 28.4632 14.3853 28.5673 14.3138C28.6714 14.2424 28.7515 14.141 28.7968 14.0231L29.0829 13.28C29.4767 13.1625 29.8573 13.0047 30.2187 12.8091L30.947 13.1326C31.0624 13.1839 31.1907 13.199 31.3149 13.1759C31.439 13.1529 31.5533 13.0927 31.6426 13.0034L32.8435 11.8025C32.9328 11.7132 32.9929 11.5989 33.016 11.4747C33.0391 11.3506 33.024 11.2223 32.9727 11.1069L32.6494 10.379C32.8452 10.0175 33.003 9.6367 33.1204 9.24273L33.8632 8.9568C33.9811 8.91144 34.0825 8.83143 34.154 8.7273C34.2255 8.62317 34.2637 8.49982 34.2637 8.37352V8.14937H35.4713V24.9586H4.52816V8.14937H15.4888V17.3567C15.4888 17.4664 15.5176 17.5742 15.5725 17.6692ZM17.1963 17.9817H18.3654L17.7808 18.9941L17.1963 17.9817ZM21.6189 5.77437C21.6157 5.785 21.6118 5.79531 21.6086 5.80594L20.8657 6.09188C20.7479 6.13723 20.6465 6.21725 20.575 6.32137C20.5035 6.4255 20.4653 6.54885 20.4653 6.67516V6.8993H20.0729V5.77437H21.6189ZM17.503 2.47805H18.0587C18.4801 2.47805 18.8229 2.82094 18.8229 3.24227V16.7317H16.7388V3.24227C16.7388 2.82086 17.0816 2.47805 17.503 2.47805ZM31.925 36.8148V38.125H8.07457V36.8148C8.07457 36.1047 8.89746 35.5047 9.87152 35.5047H30.1281C31.1021 35.5048 31.925 36.1048 31.925 36.8148ZM25.1801 34.2548H14.8194V30.9926H25.1801V34.2548ZM37.8464 27.5276C37.8464 28.749 36.8527 29.7427 35.6313 29.7427H4.36832C3.14699 29.7427 2.15332 28.749 2.15332 27.5276V7.98953C2.15332 6.76813 3.14699 5.77437 4.36832 5.77437H15.4889V6.8993H4.29707C3.73527 6.8993 3.27816 7.35641 3.27816 7.91812V25.5836C3.27816 25.7494 3.34401 25.9083 3.46122 26.0255C3.57843 26.1427 3.7374 26.2086 3.90316 26.2086H36.0964C36.2621 26.2086 36.4211 26.1427 36.5383 26.0255C36.6555 25.9083 36.7214 25.7494 36.7214 25.5836V7.9182C36.7214 7.35648 36.2643 6.89937 35.7025 6.89937H34.2639V6.67531C34.2639 6.54901 34.2256 6.42567 34.1541 6.32155C34.0826 6.21743 33.9813 6.1374 33.8634 6.09203L33.1203 5.80602C33.1171 5.79539 33.1132 5.785 33.11 5.77445H35.6312C36.8526 5.77445 37.8463 6.7682 37.8463 7.98961V27.5276H37.8464ZM27.3646 11.1111C29.3423 11.1111 30.9513 9.50203 30.9513 7.52437C30.9513 5.54672 29.3423 3.93766 27.3646 3.93766C25.3868 3.93766 23.7778 5.54672 23.7778 7.52437C23.7778 9.50203 25.3868 11.1111 27.3646 11.1111ZM27.3646 5.18758C28.6531 5.18758 29.7013 6.23586 29.7013 7.5243C29.7013 8.81273 28.6531 9.86102 27.3646 9.86102C26.0761 9.86102 25.0278 8.81273 25.0278 7.5243C25.0278 6.23586 26.0761 5.18758 27.3646 5.18758ZM26.3373 22.7574L27.9468 16.7507C27.9897 16.5906 28.0945 16.4541 28.238 16.3712C28.3816 16.2883 28.5522 16.2658 28.7123 16.3088C28.8724 16.3517 29.0089 16.4564 29.0918 16.6C29.1747 16.7435 29.1972 16.9141 29.1543 17.0742L27.5447 23.0809C27.5091 23.2138 27.4307 23.3312 27.3216 23.415C27.2126 23.4988 27.0789 23.5442 26.9414 23.5444C26.8455 23.5444 26.7508 23.5224 26.6648 23.48C26.5788 23.4376 26.5037 23.376 26.4453 23.2999C26.3869 23.2238 26.3467 23.1353 26.328 23.0412C26.3093 22.9472 26.3125 22.8501 26.3373 22.7574ZM22.118 19.9159C22.118 19.8248 22.1379 19.7349 22.1763 19.6523C22.2147 19.5698 22.2706 19.4966 22.3403 19.438L24.9628 17.228C25.0255 17.1751 25.0981 17.135 25.1763 17.1102C25.2545 17.0853 25.3369 17.0761 25.4187 17.0831C25.5005 17.0901 25.5801 17.1131 25.653 17.1508C25.7259 17.1886 25.7906 17.2403 25.8435 17.3031C25.9503 17.4299 26.0024 17.5939 25.9883 17.759C25.9742 17.9241 25.8951 18.0769 25.7683 18.1838L23.7129 19.9159L25.7683 21.6479C25.8664 21.7305 25.9366 21.8412 25.9696 21.9651C26.0026 22.089 25.9967 22.22 25.9527 22.3404C25.9087 22.4608 25.8287 22.5648 25.7236 22.6382C25.6185 22.7116 25.4934 22.7509 25.3652 22.7508C25.223 22.7508 25.08 22.7025 24.9628 22.6037L22.3403 20.3938C22.2706 20.3351 22.2147 20.2619 22.1763 20.1794C22.1379 20.0968 22.118 20.0069 22.118 19.9159ZM29.7232 21.6479L31.7786 19.9159L29.7232 18.1838C29.6604 18.1309 29.6087 18.0661 29.5709 17.9933C29.5332 17.9204 29.5102 17.8408 29.5032 17.759C29.4962 17.6772 29.5054 17.5949 29.5303 17.5167C29.5551 17.4384 29.5951 17.3659 29.648 17.3031C29.7009 17.2404 29.7656 17.1886 29.8385 17.1509C29.9114 17.1131 29.991 17.0901 30.0728 17.0831C30.1546 17.0762 30.2369 17.0854 30.3152 17.1102C30.3934 17.1351 30.4659 17.1751 30.5287 17.228L33.1512 19.438C33.2208 19.4966 33.2768 19.5698 33.3151 19.6523C33.3535 19.7349 33.3734 19.8248 33.3734 19.9159C33.3734 20.0069 33.3535 20.0968 33.3151 20.1794C33.2768 20.2619 33.2208 20.3351 33.1512 20.3938L30.5287 22.6037C30.4162 22.6988 30.2736 22.7509 30.1263 22.7508C29.9981 22.7508 29.873 22.7115 29.768 22.6381C29.6629 22.5647 29.5829 22.4607 29.5389 22.3403C29.4949 22.22 29.489 22.089 29.522 21.9651C29.5549 21.8412 29.6252 21.7305 29.7232 21.6479ZM6.64973 22.1602H19.6619C19.8277 22.1602 19.9866 22.226 20.1039 22.3432C20.2211 22.4604 20.2869 22.6194 20.2869 22.7852C20.2869 22.9509 20.2211 23.1099 20.1039 23.2271C19.9866 23.3443 19.8277 23.4102 19.6619 23.4102H6.64973C6.48397 23.4102 6.32499 23.3443 6.20778 23.2271C6.09057 23.1099 6.02473 22.9509 6.02473 22.7852C6.02473 22.6194 6.09057 22.4604 6.20778 22.3432C6.32499 22.226 6.48397 22.1602 6.64973 22.1602ZM5.98027 17.7443C5.98027 17.5785 6.04612 17.4196 6.16333 17.3024C6.28054 17.1851 6.43951 17.1193 6.60527 17.1193H13.3672C13.533 17.1193 13.692 17.1851 13.8092 17.3024C13.9264 17.4196 13.9922 17.5785 13.9922 17.7443C13.9922 17.9101 13.9264 18.069 13.8092 18.1862C13.692 18.3034 13.533 18.3693 13.3672 18.3693H6.60527C6.43951 18.3693 6.28054 18.3034 6.16333 18.1862C6.04612 18.069 5.98027 17.9101 5.98027 17.7443ZM6.00246 20.2648C6.00246 20.099 6.06831 19.94 6.18552 19.8228C6.30273 19.7056 6.4617 19.6398 6.62746 19.6398H13.3894C13.5552 19.6398 13.7141 19.7056 13.8314 19.8228C13.9486 19.94 14.0144 20.099 14.0144 20.2648C14.0144 20.4305 13.9486 20.5895 13.8314 20.7067C13.7141 20.8239 13.5552 20.8898 13.3894 20.8898H6.62746C6.4617 20.8898 6.30273 20.8239 6.18552 20.7067C6.06831 20.5895 6.00246 20.4305 6.00246 20.2648ZM6.02473 10.183C6.02473 10.0173 6.09057 9.85832 6.20778 9.74111C6.32499 9.62389 6.48397 9.55805 6.64973 9.55805H13.4117C13.5774 9.55805 13.7364 9.62389 13.8536 9.74111C13.9708 9.85832 14.0367 10.0173 14.0367 10.183C14.0367 10.3488 13.9708 10.5078 13.8536 10.625C13.7364 10.7422 13.5774 10.808 13.4117 10.808H6.64973C6.48397 10.808 6.32499 10.7422 6.20778 10.625C6.09057 10.5078 6.02473 10.3488 6.02473 10.183ZM6.00246 12.7035C6.00246 12.5378 6.06831 12.3788 6.18552 12.2616C6.30273 12.1444 6.4617 12.0785 6.62746 12.0785H13.3894C13.5552 12.0785 13.7141 12.1444 13.8314 12.2616C13.9486 12.3788 14.0144 12.5378 14.0144 12.7035C14.0144 12.8693 13.9486 13.0282 13.8314 13.1455C13.7141 13.2627 13.5552 13.3285 13.3894 13.3285H6.62746C6.4617 13.3285 6.30273 13.2627 6.18552 13.1455C6.06831 13.0282 6.00246 12.8693 6.00246 12.7035ZM5.98027 15.2239C5.98027 15.0581 6.04612 14.8992 6.16333 14.782C6.28054 14.6648 6.43951 14.5989 6.60527 14.5989H13.3672C13.533 14.5989 13.692 14.6648 13.8092 14.782C13.9264 14.8992 13.9922 15.0581 13.9922 15.2239C13.9922 15.3897 13.9264 15.5486 13.8092 15.6658C13.692 15.7831 13.533 15.8489 13.3672 15.8489H6.60527C6.43951 15.8489 6.28054 15.7831 6.16333 15.6658C6.04612 15.5486 5.98027 15.3897 5.98027 15.2239Z" fill="#FFA726"/>
</g>
</svg>
