<svg width="40" height="40" viewBox="0 0 40 40" fill="none" xmlns="http://www.w3.org/2000/svg">
<g id="Group">
<path id="Vector" d="M38 18C37.5877 18.0013 37.186 18.1302 36.8499 18.3689C36.5137 18.6076 36.2597 18.9445 36.1227 19.3333H32V16.6667H36C36.1768 16.6667 36.3464 16.5964 36.4714 16.4714C36.5964 16.3464 36.6667 16.1768 36.6667 16C36.6667 15.8232 36.5964 15.6536 36.4714 15.5286C36.3464 15.4036 36.1768 15.3333 36 15.3333H32V12.6667H36.6667C37.402 12.6667 38 12.0687 38 11.3333V9.87733C38.3888 9.74028 38.7257 9.48627 38.9644 9.15014C39.2032 8.81402 39.332 8.41227 39.3333 8C39.3333 6.89733 38.436 6 37.3333 6C36.2307 6 35.3333 6.89733 35.3333 8C35.3333 8.868 35.8927 9.60133 36.6667 9.87733V11.3333H32V10.6667C32 9.196 30.804 8 29.3333 8H28.6667V3.33333H30.1227C30.2597 3.72215 30.5137 4.05904 30.8499 4.29776C31.186 4.53648 31.5877 4.66535 32 4.66667C33.1027 4.66667 34 3.76933 34 2.66667C34 1.564 33.1027 0.666667 32 0.666667C31.5877 0.667988 31.186 0.796851 30.8499 1.03557C30.5137 1.27429 30.2597 1.61118 30.1227 2H28.6667C27.9313 2 27.3333 2.598 27.3333 3.33333V8H24.6667V4C24.6667 3.82319 24.5964 3.65362 24.4714 3.5286C24.3464 3.40357 24.1768 3.33333 24 3.33333C23.8232 3.33333 23.6536 3.40357 23.5286 3.5286C23.4036 3.65362 23.3333 3.82319 23.3333 4V8H20.6667V3.87733C21.0555 3.74028 21.3924 3.48627 21.6311 3.15014C21.8698 2.81402 21.9987 2.41227 22 2C22 0.897333 21.1027 0 20 0C18.8973 0 18 0.897333 18 2C18 2.868 18.5593 3.60133 19.3333 3.87733V8H16.6667V4C16.6667 3.82319 16.5964 3.65362 16.4714 3.5286C16.3464 3.40357 16.1768 3.33333 16 3.33333C15.8232 3.33333 15.6536 3.40357 15.5286 3.5286C15.4036 3.65362 15.3333 3.82319 15.3333 4V8H12.6667V3.33333C12.6667 2.598 12.0687 2 11.3333 2H9.87733C9.74028 1.61118 9.48627 1.27429 9.15014 1.03557C8.81402 0.796851 8.41227 0.667988 8 0.666667C6.89733 0.666667 6 1.564 6 2.66667C6 3.76933 6.89733 4.66667 8 4.66667C8.41227 4.66535 8.81402 4.53648 9.15014 4.29776C9.48627 4.05904 9.74028 3.72215 9.87733 3.33333H11.3333V8H10.6667C9.196 8 8 9.196 8 10.6667V11.3333H3.33333V9.87733C3.72215 9.74028 4.05904 9.48627 4.29776 9.15014C4.53648 8.81402 4.66535 8.41227 4.66667 8C4.66667 6.89733 3.76933 6 2.66667 6C1.564 6 0.666667 6.89733 0.666667 8C0.666667 8.868 1.226 9.60133 2 9.87733V11.3333C2 12.0687 2.598 12.6667 3.33333 12.6667H8V15.3333H4C3.82319 15.3333 3.65362 15.4036 3.5286 15.5286C3.40357 15.6536 3.33333 15.8232 3.33333 16C3.33333 16.1768 3.40357 16.3464 3.5286 16.4714C3.65362 16.5964 3.82319 16.6667 4 16.6667H8V19.3333H3.87733C3.74028 18.9445 3.48627 18.6076 3.15014 18.3689C2.81402 18.1302 2.41227 18.0013 2 18C0.897333 18 0 18.8973 0 20C0 21.1027 0.897333 22 2 22C2.41227 21.9987 2.81402 21.8698 3.15014 21.6311C3.48627 21.3924 3.74028 21.0555 3.87733 20.6667H8V23.3333H4C3.82319 23.3333 3.65362 23.4036 3.5286 23.5286C3.40357 23.6536 3.33333 23.8232 3.33333 24C3.33333 24.1768 3.40357 24.3464 3.5286 24.4714C3.65362 24.5964 3.82319 24.6667 4 24.6667H8V27.3333H3.33333C2.598 27.3333 2 27.9313 2 28.6667V30.1227C1.61118 30.2597 1.27429 30.5137 1.03557 30.8499C0.796851 31.186 0.667988 31.5877 0.666667 32C0.666667 33.1027 1.564 34 2.66667 34C3.76933 34 4.66667 33.1027 4.66667 32C4.66535 31.5877 4.53648 31.186 4.29776 30.8499C4.05904 30.5137 3.72215 30.2597 3.33333 30.1227V28.6667H8V29.3333C8 30.804 9.196 32 10.6667 32H11.3333V36.6667H9.87733C9.74028 36.2778 9.48627 35.941 9.15014 35.7022C8.81402 35.4635 8.41227 35.3347 8 35.3333C6.89733 35.3333 6 36.2307 6 37.3333C6 38.436 6.89733 39.3333 8 39.3333C8.41227 39.332 8.81402 39.2032 9.15014 38.9644C9.48627 38.7257 9.74028 38.3888 9.87733 38H11.3333C12.0687 38 12.6667 37.402 12.6667 36.6667V32H15.3333V36C15.3333 36.1768 15.4036 36.3464 15.5286 36.4714C15.6536 36.5964 15.8232 36.6667 16 36.6667C16.1768 36.6667 16.3464 36.5964 16.4714 36.4714C16.5964 36.3464 16.6667 36.1768 16.6667 36V32H19.3333V36.1227C18.9445 36.2597 18.6076 36.5137 18.3689 36.8499C18.1302 37.186 18.0013 37.5877 18 38C18 39.1027 18.8973 40 20 40C21.1027 40 22 39.1027 22 38C21.9987 37.5877 21.8698 37.186 21.6311 36.8499C21.3924 36.5137 21.0555 36.2597 20.6667 36.1227V32H23.3333V36C23.3333 36.1768 23.4036 36.3464 23.5286 36.4714C23.6536 36.5964 23.8232 36.6667 24 36.6667C24.1768 36.6667 24.3464 36.5964 24.4714 36.4714C24.5964 36.3464 24.6667 36.1768 24.6667 36V32H27.3333V36.6667C27.3333 37.402 27.9313 38 28.6667 38H30.1227C30.2597 38.3888 30.5137 38.7257 30.8499 38.9644C31.186 39.2032 31.5877 39.332 32 39.3333C33.1027 39.3333 34 38.436 34 37.3333C34 36.2307 33.1027 35.3333 32 35.3333C31.5877 35.3347 31.186 35.4635 30.8499 35.7022C30.5137 35.941 30.2597 36.2778 30.1227 36.6667H28.6667V32H29.3333C30.804 32 32 30.804 32 29.3333V28.6667H36.6667V30.1227C36.2778 30.2597 35.941 30.5137 35.7022 30.8499C35.4635 31.186 35.3347 31.5877 35.3333 32C35.3333 33.1027 36.2307 34 37.3333 34C38.436 34 39.3333 33.1027 39.3333 32C39.332 31.5877 39.2032 31.186 38.9644 30.8499C38.7257 30.5137 38.3888 30.2597 38 30.1227V28.6667C38 27.9313 37.402 27.3333 36.6667 27.3333H32V24.6667H36C36.1768 24.6667 36.3464 24.5964 36.4714 24.4714C36.5964 24.3464 36.6667 24.1768 36.6667 24C36.6667 23.8232 36.5964 23.6536 36.4714 23.5286C36.3464 23.4036 36.1768 23.3333 36 23.3333H32V20.6667H36.1227C36.2597 21.0555 36.5137 21.3924 36.8499 21.6311C37.186 21.8698 37.5877 21.9987 38 22C39.1027 22 40 21.1027 40 20C40 18.8973 39.1027 18 38 18ZM37.3333 7.33333C37.5101 7.33333 37.6797 7.40357 37.8047 7.5286C37.9298 7.65362 38 7.82319 38 8C38 8.17681 37.9298 8.34638 37.8047 8.47141C37.6797 8.59643 37.5101 8.66667 37.3333 8.66667C37.1565 8.66667 36.987 8.59643 36.8619 8.47141C36.7369 8.34638 36.6667 8.17681 36.6667 8C36.6667 7.82319 36.7369 7.65362 36.8619 7.5286C36.987 7.40357 37.1565 7.33333 37.3333 7.33333ZM32 2C32.1768 2 32.3464 2.07024 32.4714 2.19526C32.5964 2.32029 32.6667 2.48986 32.6667 2.66667C32.6667 2.84348 32.5964 3.01305 32.4714 3.13807C32.3464 3.2631 32.1768 3.33333 32 3.33333C31.8232 3.33333 31.6536 3.2631 31.5286 3.13807C31.4036 3.01305 31.3333 2.84348 31.3333 2.66667C31.3333 2.48986 31.4036 2.32029 31.5286 2.19526C31.6536 2.07024 31.8232 2 32 2ZM20 1.33333C20.1768 1.33333 20.3464 1.40357 20.4714 1.5286C20.5964 1.65362 20.6667 1.82319 20.6667 2C20.6667 2.17681 20.5964 2.34638 20.4714 2.4714C20.3464 2.59643 20.1768 2.66667 20 2.66667C19.8232 2.66667 19.6536 2.59643 19.5286 2.4714C19.4036 2.34638 19.3333 2.17681 19.3333 2C19.3333 1.82319 19.4036 1.65362 19.5286 1.5286C19.6536 1.40357 19.8232 1.33333 20 1.33333ZM8 3.33333C7.82319 3.33333 7.65362 3.2631 7.5286 3.13807C7.40357 3.01305 7.33333 2.84348 7.33333 2.66667C7.33333 2.48986 7.40357 2.32029 7.5286 2.19526C7.65362 2.07024 7.82319 2 8 2C8.17681 2 8.34638 2.07024 8.47141 2.19526C8.59643 2.32029 8.66667 2.48986 8.66667 2.66667C8.66667 2.84348 8.59643 3.01305 8.47141 3.13807C8.34638 3.2631 8.17681 3.33333 8 3.33333ZM2.66667 7.33333C2.84348 7.33333 3.01305 7.40357 3.13807 7.5286C3.2631 7.65362 3.33333 7.82319 3.33333 8C3.33333 8.17681 3.2631 8.34638 3.13807 8.47141C3.01305 8.59643 2.84348 8.66667 2.66667 8.66667C2.48986 8.66667 2.32029 8.59643 2.19526 8.47141C2.07024 8.34638 2 8.17681 2 8C2 7.82319 2.07024 7.65362 2.19526 7.5286C2.32029 7.40357 2.48986 7.33333 2.66667 7.33333ZM2 20.6667C1.82319 20.6667 1.65362 20.5964 1.5286 20.4714C1.40357 20.3464 1.33333 20.1768 1.33333 20C1.33333 19.8232 1.40357 19.6536 1.5286 19.5286C1.65362 19.4036 1.82319 19.3333 2 19.3333C2.17681 19.3333 2.34638 19.4036 2.4714 19.5286C2.59643 19.6536 2.66667 19.8232 2.66667 20C2.66667 20.1768 2.59643 20.3464 2.4714 20.4714C2.34638 20.5964 2.17681 20.6667 2 20.6667ZM2.66667 32.6667C2.48986 32.6667 2.32029 32.5964 2.19526 32.4714C2.07024 32.3464 2 32.1768 2 32C2 31.8232 2.07024 31.6536 2.19526 31.5286C2.32029 31.4036 2.48986 31.3333 2.66667 31.3333C2.84348 31.3333 3.01305 31.4036 3.13807 31.5286C3.2631 31.6536 3.33333 31.8232 3.33333 32C3.33333 32.1768 3.2631 32.3464 3.13807 32.4714C3.01305 32.5964 2.84348 32.6667 2.66667 32.6667ZM8 38C7.82319 38 7.65362 37.9298 7.5286 37.8047C7.40357 37.6797 7.33333 37.5101 7.33333 37.3333C7.33333 37.1565 7.40357 36.987 7.5286 36.8619C7.65362 36.7369 7.82319 36.6667 8 36.6667C8.17681 36.6667 8.34638 36.7369 8.47141 36.8619C8.59643 36.987 8.66667 37.1565 8.66667 37.3333C8.66667 37.5101 8.59643 37.6797 8.47141 37.8047C8.34638 37.9298 8.17681 38 8 38ZM20 38.6667C19.8232 38.6667 19.6536 38.5964 19.5286 38.4714C19.4036 38.3464 19.3333 38.1768 19.3333 38C19.3333 37.8232 19.4036 37.6536 19.5286 37.5286C19.6536 37.4036 19.8232 37.3333 20 37.3333C20.1768 37.3333 20.3464 37.4036 20.4714 37.5286C20.5964 37.6536 20.6667 37.8232 20.6667 38C20.6667 38.1768 20.5964 38.3464 20.4714 38.4714C20.3464 38.5964 20.1768 38.6667 20 38.6667ZM32 36.6667C32.1768 36.6667 32.3464 36.7369 32.4714 36.8619C32.5964 36.987 32.6667 37.1565 32.6667 37.3333C32.6667 37.5101 32.5964 37.6797 32.4714 37.8047C32.3464 37.9298 32.1768 38 32 38C31.8232 38 31.6536 37.9298 31.5286 37.8047C31.4036 37.6797 31.3333 37.5101 31.3333 37.3333C31.3333 37.1565 31.4036 36.987 31.5286 36.8619C31.6536 36.7369 31.8232 36.6667 32 36.6667ZM37.3333 32.6667C37.1565 32.6667 36.987 32.5964 36.8619 32.4714C36.7369 32.3464 36.6667 32.1768 36.6667 32C36.6667 31.8232 36.7369 31.6536 36.8619 31.5286C36.987 31.4036 37.1565 31.3333 37.3333 31.3333C37.5101 31.3333 37.6797 31.4036 37.8047 31.5286C37.9298 31.6536 38 31.8232 38 32C38 32.1768 37.9298 32.3464 37.8047 32.4714C37.6797 32.5964 37.5101 32.6667 37.3333 32.6667ZM30.6667 29.3333C30.6667 30.0687 30.0687 30.6667 29.3333 30.6667H10.6667C9.93133 30.6667 9.33333 30.0687 9.33333 29.3333V10.6667C9.33333 9.93133 9.93133 9.33333 10.6667 9.33333H29.3333C30.0687 9.33333 30.6667 9.93133 30.6667 10.6667V29.3333ZM38 20.6667C37.8232 20.6667 37.6536 20.5964 37.5286 20.4714C37.4036 20.3464 37.3333 20.1768 37.3333 20C37.3333 19.8232 37.4036 19.6536 37.5286 19.5286C37.6536 19.4036 37.8232 19.3333 38 19.3333C38.1768 19.3333 38.3464 19.4036 38.4714 19.5286C38.5964 19.6536 38.6667 19.8232 38.6667 20C38.6667 20.1768 38.5964 20.3464 38.4714 20.4714C38.3464 20.5964 38.1768 20.6667 38 20.6667Z" fill="#FFA726"/>
<path id="Vector_2" d="M17.0075 14.8067C16.9015 14.332 16.4875 14 16.0002 14C15.5129 14 15.0989 14.332 14.9922 14.808L12.6822 25.1887C12.6441 25.3613 12.676 25.542 12.771 25.6912C12.866 25.8403 13.0163 25.9456 13.1889 25.984C13.3615 26.0214 13.5418 25.9892 13.6908 25.8943C13.8397 25.7994 13.9452 25.6496 13.9842 25.4773L14.7582 21.9993H17.2415L18.0155 25.4773C18.0538 25.6501 18.1592 25.8005 18.3084 25.8956C18.4576 25.9907 18.6385 26.0226 18.8112 25.9843C18.984 25.9461 19.1344 25.8407 19.2295 25.6915C19.3246 25.5423 19.3565 25.3614 19.3182 25.1887L17.0075 14.8067ZM15.0555 20.6667L16.0009 16.4187L16.9462 20.6667H15.0555ZM25.3335 15.3333C25.5104 15.3333 25.6799 15.2631 25.805 15.1381C25.93 15.013 26.0002 14.8435 26.0002 14.6667C26.0002 14.4899 25.93 14.3203 25.805 14.1953C25.6799 14.0702 25.5104 14 25.3335 14H21.3335C21.1567 14 20.9872 14.0702 20.8621 14.1953C20.7371 14.3203 20.6669 14.4899 20.6669 14.6667C20.6669 14.8435 20.7371 15.013 20.8621 15.1381C20.9872 15.2631 21.1567 15.3333 21.3335 15.3333H22.6669V24.6667H21.3335C21.1567 24.6667 20.9872 24.7369 20.8621 24.8619C20.7371 24.987 20.6669 25.1565 20.6669 25.3333C20.6669 25.5101 20.7371 25.6797 20.8621 25.8047C20.9872 25.9298 21.1567 26 21.3335 26H25.3335C25.5104 26 25.6799 25.9298 25.805 25.8047C25.93 25.6797 26.0002 25.5101 26.0002 25.3333C26.0002 25.1565 25.93 24.987 25.805 24.8619C25.6799 24.7369 25.5104 24.6667 25.3335 24.6667H24.0002V15.3333H25.3335Z" fill="#FFA726"/>
</g>
</svg>
